<?xml version="1.0" standalone="no"?>
<!DOCTYPE svg PUBLIC "-//W3C//DTD SVG 1.1//EN" 
  "http://www.w3.org/Graphics/SVG/1.1/DTD/svg11.dtd">
<svg width="448.900mm" height="100.000mm" version="1.1"
     viewBox="0 0 448.900 100.000"
     xmlns="http://www.w3.org/2000/svg"     xmlns:xlink="http://www.w3.org/1999/xlink" 
     xmlns:fpd="http://www.schaeffer-ag.de">
  <desc>This drawing was created with Front Panel Designer by exporting the file 'Kenbak-1 Back.fpd'.</desc>
  <defs>
    <pattern id="revside-fill" x="1" y="1" width="4.489" height="4.489" patternUnits="userSpaceOnUse">
      <line x1="0" y1="0" x2="4.489" y2="4.489" style="stroke-width:0.449; stroke:black; stroke-dasharray:none;"/>
      <line x1="0" y1="4.489" x2="4.489" y2="0" style="stroke-width:0.449; stroke:black;stroke-dasharray:none;"/>
    </pattern>
    <pattern id="revside-fill-silver" x="1" y="1" width="4.489" height="4.489" patternUnits="userSpaceOnUse">
      <line x1="0" y1="0" x2="4.489" y2="4.489" style="stroke-width:0.449; stroke:#e0e0e0; stroke-dasharray:none;" />
      <line x1="0" y1="4.489" x2="4.489" y2="0" style="stroke-width:0.449; stroke:#e0e0e0; stroke-dasharray:none;" />
    </pattern>
  </defs>
  <g transform="matrix(1.000000 0.000000 0.000000 -1.000000 0.000000 100.000000)"   fill-rule="evenodd"
   style="stroke-linecap:round; stroke-linejoin:round; stroke-opacity:1.0;">
    <g fpd:print_element="0" fpd:visible="front"  >
      <path  d="
       M28.867 0.000
       L19.245 16.667
       L9.622 33.333
       L0.000 50.000
       L9.622 66.667
       L19.245 83.333
       L28.867 99.999
       L420.031 100.000
       L448.900 50.000
       L420.032 0.001
       L28.867 0.000
       "
       fill="#c0c0c0" vector-effect="non-scaling-stroke" stroke="#000000" stroke-width="2.000"  />
    </g>
    <g fpd:print_element="0" fpd:visible="front back"  transform="translate(59.568 95.371)">
      <path  d="
       M-1.750 0.000
       A1.750,1.750 0 1,0 1.750,0.000
A1.750,1.750 0 1,0 -1.750,0.000
       "
       fill="#ffffff" vector-effect="non-scaling-stroke" stroke="#000000" stroke-width="1.000"  />
    </g>
    <g fpd:print_element="0" fpd:visible="front back"  transform="translate(224.742 95.359)">
      <path  d="
       M-1.750 0.000
       A1.750,1.750 0 1,0 1.750,0.000
A1.750,1.750 0 1,0 -1.750,0.000
       "
       fill="#ffffff" vector-effect="non-scaling-stroke" stroke="#000000" stroke-width="1.000"  />
    </g>
    <g fpd:print_element="0" fpd:visible="front back"  transform="translate(389.831 95.349)">
      <path  d="
       M-1.750 0.000
       A1.750,1.750 0 1,0 1.750,0.000
A1.750,1.750 0 1,0 -1.750,0.000
       "
       fill="#ffffff" vector-effect="non-scaling-stroke" stroke="#000000" stroke-width="1.000"  />
    </g>
    <g fpd:print_element="0" fpd:visible="front back"  transform="translate(389.748 4.946)">
      <path  d="
       M-1.750 0.000
       A1.750,1.750 0 1,0 1.750,0.000
A1.750,1.750 0 1,0 -1.750,0.000
       "
       fill="#ffffff" vector-effect="non-scaling-stroke" stroke="#000000" stroke-width="1.000"  />
    </g>
    <g fpd:print_element="0" fpd:visible="front back"  transform="translate(224.659 4.956)">
      <path  d="
       M-1.750 0.000
       A1.750,1.750 0 1,0 1.750,0.000
A1.750,1.750 0 1,0 -1.750,0.000
       "
       fill="#ffffff" vector-effect="non-scaling-stroke" stroke="#000000" stroke-width="1.000"  />
    </g>
    <g fpd:print_element="0" fpd:visible="front back"  transform="translate(59.485 4.968)">
      <path  d="
       M-1.750 0.000
       A1.750,1.750 0 1,0 1.750,0.000
A1.750,1.750 0 1,0 -1.750,0.000
       "
       fill="#ffffff" vector-effect="non-scaling-stroke" stroke="#000000" stroke-width="1.000"  />
    </g>
    <g fpd:print_element="0" fpd:visible="front back"  transform="translate(38.453 33.024)">
      <path  d="
       M-6.450 0.000
       A6.450,6.450 0 1,0 6.450,0.000
A6.450,6.450 0 1,0 -6.450,0.000
       "
       fill="#ffffff" vector-effect="non-scaling-stroke" stroke="#000000" stroke-width="1.000"  />
    </g>
    <g fpd:print_element="0" fpd:visible="front back"  transform="translate(38.453 67.023)">
      <path  d="
       M-6.450 0.000
       A6.450,6.450 0 1,0 6.450,0.000
A6.450,6.450 0 1,0 -6.450,0.000
       "
       fill="#ffffff" vector-effect="non-scaling-stroke" stroke="#000000" stroke-width="1.000"  />
    </g>
    <g fpd:print_element="0" fpd:visible="front back"  transform="translate(222.899 78.129)">
      <path  d="
       M-1.750 0.000
       A1.750,1.750 0 1,0 1.750,0.000
A1.750,1.750 0 1,0 -1.750,0.000
       "
       fill="#ffffff" vector-effect="non-scaling-stroke" stroke="#000000" stroke-width="1.000"  />
    </g>
    <g fpd:print_element="0" fpd:visible="front back"  transform="translate(241.899 78.129)">
      <path  d="
       M-1.750 0.000
       A1.750,1.750 0 1,0 1.750,0.000
A1.750,1.750 0 1,0 -1.750,0.000
       "
       fill="#ffffff" vector-effect="non-scaling-stroke" stroke="#000000" stroke-width="1.000"  />
    </g>
    <g fpd:print_element="0" fpd:visible="front back"  transform="matrix(0.707107 0.707107 -0.707107 0.707107 347.898000 60.803000)">
      <path  d="
       M14.692 10.398
       A1.750,1.750 0 0,1 12.104,10.698
       A1.750,1.750 0 0,1 11.835,8.376
       A14.499,14.499 0 0,0 11.835,-8.376
       A1.750,1.750 0 0,1 12.104,-10.698
       A1.750,1.750 0 0,1 14.692,-10.398
       A17.999,17.999 0 0,1 14.692,10.398
       "
       fill="#ffffff" vector-effect="non-scaling-stroke" stroke="#000000" stroke-width="1.000"  />
    </g>
    <g fpd:print_element="0" fpd:visible="front back"  transform="matrix(-0.707107 0.707107 -0.707107 -0.707107 347.898000 60.803000)">
      <path  d="
       M14.692 10.398
       A1.750,1.750 0 0,1 12.104,10.698
       A1.750,1.750 0 0,1 11.835,8.376
       A14.499,14.499 0 0,0 11.835,-8.376
       A1.750,1.750 0 0,1 12.104,-10.698
       A1.750,1.750 0 0,1 14.692,-10.398
       A17.999,17.999 0 0,1 14.692,10.398
       "
       fill="#ffffff" vector-effect="non-scaling-stroke" stroke="#000000" stroke-width="1.000"  />
    </g>
    <g fpd:print_element="0" fpd:visible="front back"  transform="matrix(-0.707107 -0.707107 0.707107 -0.707107 347.898000 60.803000)">
      <path  d="
       M14.692 10.398
       A1.750,1.750 0 0,1 12.104,10.698
       A1.750,1.750 0 0,1 11.835,8.376
       A14.499,14.499 0 0,0 11.835,-8.376
       A1.750,1.750 0 0,1 12.104,-10.698
       A1.750,1.750 0 0,1 14.692,-10.398
       A17.999,17.999 0 0,1 14.692,10.398
       "
       fill="#ffffff" vector-effect="non-scaling-stroke" stroke="#000000" stroke-width="1.000"  />
    </g>
    <g fpd:print_element="0" fpd:visible="front back"  transform="matrix(0.707107 -0.707107 0.707107 0.707107 347.898000 60.803000)">
      <path  d="
       M14.692 10.398
       A1.750,1.750 0 0,1 12.104,10.698
       A1.750,1.750 0 0,1 11.835,8.376
       A14.499,14.499 0 0,0 11.835,-8.376
       A1.750,1.750 0 0,1 12.104,-10.698
       A1.750,1.750 0 0,1 14.692,-10.398
       A17.999,17.999 0 0,1 14.692,10.398
       "
       fill="#ffffff" vector-effect="non-scaling-stroke" stroke="#000000" stroke-width="1.000"  />
    </g>
    <g fpd:print_element="0" fpd:visible="front back"  transform="matrix(0.707107 0.707107 -0.707107 0.707107 347.898000 60.803000)">
      <path  d="
       M18.404 14.206
       A1.750,1.750 0 0,1 15.840,14.430
       A1.750,1.750 0 0,1 15.633,12.068
       A19.749,19.749 0 0,0 15.633,-12.068
       A1.750,1.750 0 0,1 15.840,-14.430
       A1.750,1.750 0 0,1 18.404,-14.206
       A23.249,23.249 0 0,1 18.404,14.206
       "
       fill="#ffffff" vector-effect="non-scaling-stroke" stroke="#000000" stroke-width="1.000"  />
    </g>
    <g fpd:print_element="0" fpd:visible="front back"  transform="matrix(-0.707107 0.707107 -0.707107 -0.707107 347.898000 60.803000)">
      <path  d="
       M18.404 14.206
       A1.750,1.750 0 0,1 15.840,14.430
       A1.750,1.750 0 0,1 15.633,12.068
       A19.749,19.749 0 0,0 15.633,-12.068
       A1.750,1.750 0 0,1 15.840,-14.430
       A1.750,1.750 0 0,1 18.404,-14.206
       A23.249,23.249 0 0,1 18.404,14.206
       "
       fill="#ffffff" vector-effect="non-scaling-stroke" stroke="#000000" stroke-width="1.000"  />
    </g>
    <g fpd:print_element="0" fpd:visible="front back"  transform="matrix(-0.707107 -0.707107 0.707107 -0.707107 347.898000 60.803000)">
      <path  d="
       M18.404 14.206
       A1.750,1.750 0 0,1 15.840,14.430
       A1.750,1.750 0 0,1 15.633,12.068
       A19.749,19.749 0 0,0 15.633,-12.068
       A1.750,1.750 0 0,1 15.840,-14.430
       A1.750,1.750 0 0,1 18.404,-14.206
       A23.249,23.249 0 0,1 18.404,14.206
       "
       fill="#ffffff" vector-effect="non-scaling-stroke" stroke="#000000" stroke-width="1.000"  />
    </g>
    <g fpd:print_element="0" fpd:visible="front back"  transform="matrix(0.707107 -0.707107 0.707107 0.707107 347.898000 60.803000)">
      <path  d="
       M18.404 14.206
       A1.750,1.750 0 0,1 15.840,14.430
       A1.750,1.750 0 0,1 15.633,12.068
       A19.749,19.749 0 0,0 15.633,-12.068
       A1.750,1.750 0 0,1 15.840,-14.430
       A1.750,1.750 0 0,1 18.404,-14.206
       A23.249,23.249 0 0,1 18.404,14.206
       "
       fill="#ffffff" vector-effect="non-scaling-stroke" stroke="#000000" stroke-width="1.000"  />
    </g>
    <g fpd:print_element="0" fpd:visible="front back"  transform="matrix(0.707107 0.707107 -0.707107 0.707107 347.898000 60.803000)">
      <path  d="
       M22.115 17.976
       A1.750,1.750 0 0,1 19.566,18.155
       A1.750,1.750 0 0,1 19.399,15.769
       A25.000,25.000 0 0,0 19.399,-15.769
       A1.750,1.750 0 0,1 19.566,-18.155
       A1.750,1.750 0 0,1 22.115,-17.976
       A28.499,28.499 0 0,1 22.115,17.976
       "
       fill="#ffffff" vector-effect="non-scaling-stroke" stroke="#000000" stroke-width="1.000"  />
    </g>
    <g fpd:print_element="0" fpd:visible="front back"  transform="matrix(-0.707107 0.707107 -0.707107 -0.707107 347.898000 60.803000)">
      <path  d="
       M22.115 17.976
       A1.750,1.750 0 0,1 19.566,18.155
       A1.750,1.750 0 0,1 19.399,15.769
       A25.000,25.000 0 0,0 19.399,-15.769
       A1.750,1.750 0 0,1 19.566,-18.155
       A1.750,1.750 0 0,1 22.115,-17.976
       A28.499,28.499 0 0,1 22.115,17.976
       "
       fill="#ffffff" vector-effect="non-scaling-stroke" stroke="#000000" stroke-width="1.000"  />
    </g>
    <g fpd:print_element="0" fpd:visible="front back"  transform="matrix(-0.707107 -0.707107 0.707107 -0.707107 347.898000 60.803000)">
      <path  d="
       M22.115 17.976
       A1.750,1.750 0 0,1 19.566,18.155
       A1.750,1.750 0 0,1 19.399,15.769
       A25.000,25.000 0 0,0 19.399,-15.769
       A1.750,1.750 0 0,1 19.566,-18.155
       A1.750,1.750 0 0,1 22.115,-17.976
       A28.499,28.499 0 0,1 22.115,17.976
       "
       fill="#ffffff" vector-effect="non-scaling-stroke" stroke="#000000" stroke-width="1.000"  />
    </g>
    <g fpd:print_element="0" fpd:visible="front back"  transform="matrix(0.707107 -0.707107 0.707107 0.707107 347.898000 60.803000)">
      <path  d="
       M22.115 17.976
       A1.750,1.750 0 0,1 19.566,18.155
       A1.750,1.750 0 0,1 19.399,15.769
       A25.000,25.000 0 0,0 19.399,-15.769
       A1.750,1.750 0 0,1 19.566,-18.155
       A1.750,1.750 0 0,1 22.115,-17.976
       A28.499,28.499 0 0,1 22.115,17.976
       "
       fill="#ffffff" vector-effect="non-scaling-stroke" stroke="#000000" stroke-width="1.000"  />
    </g>
    <g fpd:print_element="0" fpd:visible="front back"  transform="translate(322.898 35.803)">
      <path  d="
       M-1.850 0.000
       A1.850,1.850 0 1,0 1.850,0.000
A1.850,1.850 0 1,0 -1.850,0.000
       "
       fill="#ffffff" vector-effect="non-scaling-stroke" stroke="#000000" stroke-width="1.000"  />
    </g>
    <g fpd:print_element="0" fpd:visible="front back"  transform="translate(372.898 35.803)">
      <path  d="
       M-1.850 0.000
       A1.850,1.850 0 1,0 1.850,0.000
A1.850,1.850 0 1,0 -1.850,0.000
       "
       fill="#ffffff" vector-effect="non-scaling-stroke" stroke="#000000" stroke-width="1.000"  />
    </g>
    <g fpd:print_element="0" fpd:visible="front back"  transform="translate(372.898 85.803)">
      <path  d="
       M-1.850 0.000
       A1.850,1.850 0 1,0 1.850,0.000
A1.850,1.850 0 1,0 -1.850,0.000
       "
       fill="#ffffff" vector-effect="non-scaling-stroke" stroke="#000000" stroke-width="1.000"  />
    </g>
    <g fpd:print_element="0" fpd:visible="front back"  transform="translate(322.898 85.803)">
      <path  d="
       M-1.850 0.000
       A1.850,1.850 0 1,0 1.850,0.000
A1.850,1.850 0 1,0 -1.850,0.000
       "
       fill="#ffffff" vector-effect="non-scaling-stroke" stroke="#000000" stroke-width="1.000"  />
    </g>
    <g fpd:print_element="0" fpd:visible="front back"  transform="matrix(0.707107 0.707107 -0.707107 0.707107 101.263000 60.803000)">
      <path  d="
       M14.692 10.398
       A1.750,1.750 0 0,1 12.104,10.698
       A1.750,1.750 0 0,1 11.835,8.376
       A14.499,14.499 0 0,0 11.835,-8.376
       A1.750,1.750 0 0,1 12.104,-10.698
       A1.750,1.750 0 0,1 14.692,-10.398
       A17.999,17.999 0 0,1 14.692,10.398
       "
       fill="#ffffff" vector-effect="non-scaling-stroke" stroke="#000000" stroke-width="1.000"  />
    </g>
    <g fpd:print_element="0" fpd:visible="front back"  transform="matrix(-0.707107 0.707107 -0.707107 -0.707107 101.263000 60.803000)">
      <path  d="
       M14.692 10.398
       A1.750,1.750 0 0,1 12.104,10.698
       A1.750,1.750 0 0,1 11.835,8.376
       A14.499,14.499 0 0,0 11.835,-8.376
       A1.750,1.750 0 0,1 12.104,-10.698
       A1.750,1.750 0 0,1 14.692,-10.398
       A17.999,17.999 0 0,1 14.692,10.398
       "
       fill="#ffffff" vector-effect="non-scaling-stroke" stroke="#000000" stroke-width="1.000"  />
    </g>
    <g fpd:print_element="0" fpd:visible="front back"  transform="matrix(-0.707107 -0.707107 0.707107 -0.707107 101.263000 60.803000)">
      <path  d="
       M14.692 10.398
       A1.750,1.750 0 0,1 12.104,10.698
       A1.750,1.750 0 0,1 11.835,8.376
       A14.499,14.499 0 0,0 11.835,-8.376
       A1.750,1.750 0 0,1 12.104,-10.698
       A1.750,1.750 0 0,1 14.692,-10.398
       A17.999,17.999 0 0,1 14.692,10.398
       "
       fill="#ffffff" vector-effect="non-scaling-stroke" stroke="#000000" stroke-width="1.000"  />
    </g>
    <g fpd:print_element="0" fpd:visible="front back"  transform="matrix(0.707107 -0.707107 0.707107 0.707107 101.263000 60.803000)">
      <path  d="
       M14.692 10.398
       A1.750,1.750 0 0,1 12.104,10.698
       A1.750,1.750 0 0,1 11.835,8.376
       A14.499,14.499 0 0,0 11.835,-8.376
       A1.750,1.750 0 0,1 12.104,-10.698
       A1.750,1.750 0 0,1 14.692,-10.398
       A17.999,17.999 0 0,1 14.692,10.398
       "
       fill="#ffffff" vector-effect="non-scaling-stroke" stroke="#000000" stroke-width="1.000"  />
    </g>
    <g fpd:print_element="0" fpd:visible="front back"  transform="matrix(0.707107 0.707107 -0.707107 0.707107 101.263000 60.803000)">
      <path  d="
       M18.404 14.206
       A1.750,1.750 0 0,1 15.840,14.430
       A1.750,1.750 0 0,1 15.633,12.068
       A19.749,19.749 0 0,0 15.633,-12.068
       A1.750,1.750 0 0,1 15.840,-14.430
       A1.750,1.750 0 0,1 18.404,-14.206
       A23.249,23.249 0 0,1 18.404,14.206
       "
       fill="#ffffff" vector-effect="non-scaling-stroke" stroke="#000000" stroke-width="1.000"  />
    </g>
    <g fpd:print_element="0" fpd:visible="front back"  transform="matrix(-0.707107 0.707107 -0.707107 -0.707107 101.263000 60.803000)">
      <path  d="
       M18.404 14.206
       A1.750,1.750 0 0,1 15.840,14.430
       A1.750,1.750 0 0,1 15.633,12.068
       A19.749,19.749 0 0,0 15.633,-12.068
       A1.750,1.750 0 0,1 15.840,-14.430
       A1.750,1.750 0 0,1 18.404,-14.206
       A23.249,23.249 0 0,1 18.404,14.206
       "
       fill="#ffffff" vector-effect="non-scaling-stroke" stroke="#000000" stroke-width="1.000"  />
    </g>
    <g fpd:print_element="0" fpd:visible="front back"  transform="matrix(-0.707107 -0.707107 0.707107 -0.707107 101.263000 60.803000)">
      <path  d="
       M18.404 14.206
       A1.750,1.750 0 0,1 15.840,14.430
       A1.750,1.750 0 0,1 15.633,12.068
       A19.749,19.749 0 0,0 15.633,-12.068
       A1.750,1.750 0 0,1 15.840,-14.430
       A1.750,1.750 0 0,1 18.404,-14.206
       A23.249,23.249 0 0,1 18.404,14.206
       "
       fill="#ffffff" vector-effect="non-scaling-stroke" stroke="#000000" stroke-width="1.000"  />
    </g>
    <g fpd:print_element="0" fpd:visible="front back"  transform="matrix(0.707107 -0.707107 0.707107 0.707107 101.263000 60.803000)">
      <path  d="
       M18.404 14.206
       A1.750,1.750 0 0,1 15.840,14.430
       A1.750,1.750 0 0,1 15.633,12.068
       A19.749,19.749 0 0,0 15.633,-12.068
       A1.750,1.750 0 0,1 15.840,-14.430
       A1.750,1.750 0 0,1 18.404,-14.206
       A23.249,23.249 0 0,1 18.404,14.206
       "
       fill="#ffffff" vector-effect="non-scaling-stroke" stroke="#000000" stroke-width="1.000"  />
    </g>
    <g fpd:print_element="0" fpd:visible="front back"  transform="matrix(0.707107 0.707107 -0.707107 0.707107 101.263000 60.803000)">
      <path  d="
       M22.115 17.976
       A1.750,1.750 0 0,1 19.566,18.155
       A1.750,1.750 0 0,1 19.399,15.769
       A25.000,25.000 0 0,0 19.399,-15.769
       A1.750,1.750 0 0,1 19.566,-18.155
       A1.750,1.750 0 0,1 22.115,-17.976
       A28.499,28.499 0 0,1 22.115,17.976
       "
       fill="#ffffff" vector-effect="non-scaling-stroke" stroke="#000000" stroke-width="1.000"  />
    </g>
    <g fpd:print_element="0" fpd:visible="front back"  transform="matrix(-0.707107 0.707107 -0.707107 -0.707107 101.263000 60.803000)">
      <path  d="
       M22.115 17.976
       A1.750,1.750 0 0,1 19.566,18.155
       A1.750,1.750 0 0,1 19.399,15.769
       A25.000,25.000 0 0,0 19.399,-15.769
       A1.750,1.750 0 0,1 19.566,-18.155
       A1.750,1.750 0 0,1 22.115,-17.976
       A28.499,28.499 0 0,1 22.115,17.976
       "
       fill="#ffffff" vector-effect="non-scaling-stroke" stroke="#000000" stroke-width="1.000"  />
    </g>
    <g fpd:print_element="0" fpd:visible="front back"  transform="matrix(-0.707107 -0.707107 0.707107 -0.707107 101.263000 60.803000)">
      <path  d="
       M22.115 17.976
       A1.750,1.750 0 0,1 19.566,18.155
       A1.750,1.750 0 0,1 19.399,15.769
       A25.000,25.000 0 0,0 19.399,-15.769
       A1.750,1.750 0 0,1 19.566,-18.155
       A1.750,1.750 0 0,1 22.115,-17.976
       A28.499,28.499 0 0,1 22.115,17.976
       "
       fill="#ffffff" vector-effect="non-scaling-stroke" stroke="#000000" stroke-width="1.000"  />
    </g>
    <g fpd:print_element="0" fpd:visible="front back"  transform="matrix(0.707107 -0.707107 0.707107 0.707107 101.263000 60.803000)">
      <path  d="
       M22.115 17.976
       A1.750,1.750 0 0,1 19.566,18.155
       A1.750,1.750 0 0,1 19.399,15.769
       A25.000,25.000 0 0,0 19.399,-15.769
       A1.750,1.750 0 0,1 19.566,-18.155
       A1.750,1.750 0 0,1 22.115,-17.976
       A28.499,28.499 0 0,1 22.115,17.976
       "
       fill="#ffffff" vector-effect="non-scaling-stroke" stroke="#000000" stroke-width="1.000"  />
    </g>
    <g fpd:print_element="0" fpd:visible="front back"  transform="translate(76.263 35.803)">
      <path  d="
       M-1.850 0.000
       A1.850,1.850 0 1,0 1.850,0.000
A1.850,1.850 0 1,0 -1.850,0.000
       "
       fill="#ffffff" vector-effect="non-scaling-stroke" stroke="#000000" stroke-width="1.000"  />
    </g>
    <g fpd:print_element="0" fpd:visible="front back"  transform="translate(126.263 35.803)">
      <path  d="
       M-1.850 0.000
       A1.850,1.850 0 1,0 1.850,0.000
A1.850,1.850 0 1,0 -1.850,0.000
       "
       fill="#ffffff" vector-effect="non-scaling-stroke" stroke="#000000" stroke-width="1.000"  />
    </g>
    <g fpd:print_element="0" fpd:visible="front back"  transform="translate(126.263 85.803)">
      <path  d="
       M-1.850 0.000
       A1.850,1.850 0 1,0 1.850,0.000
A1.850,1.850 0 1,0 -1.850,0.000
       "
       fill="#ffffff" vector-effect="non-scaling-stroke" stroke="#000000" stroke-width="1.000"  />
    </g>
    <g fpd:print_element="0" fpd:visible="front back"  transform="translate(76.263 85.803)">
      <path  d="
       M-1.850 0.000
       A1.850,1.850 0 1,0 1.850,0.000
A1.850,1.850 0 1,0 -1.850,0.000
       "
       fill="#ffffff" vector-effect="non-scaling-stroke" stroke="#000000" stroke-width="1.000"  />
    </g>
    <g fpd:print_element="0" fpd:visible="front"  >
      <path  d="
       M28.867 0.000
       L19.245 16.667
       L9.622 33.333
       L0.000 50.000
       L9.622 66.667
       L19.245 83.333
       L28.867 99.999
       L420.031 100.000
       L448.900 50.000
       L420.032 0.001
       L28.867 0.000
       "
       fill="none" vector-effect="non-scaling-stroke" stroke="#000000" stroke-width="1.000"  stroke-dasharray="2% 3%"  />
    </g>
    <g layer="reference_cross"  >
    </g>
  </g>
</svg>
