<?xml version="1.0" encoding="utf-8"?>
<!-- Generator: Adobe Illustrator 15.0.0, SVG Export Plug-In . SVG Version: 6.00 Build 0)  -->
<!DOCTYPE svg PUBLIC "-//W3C//DTD SVG 1.1//EN" "http://www.w3.org/Graphics/SVG/1.1/DTD/svg11.dtd">
<svg version="1.1" id="Layer_1" xmlns="http://www.w3.org/2000/svg" xmlns:xlink="http://www.w3.org/1999/xlink" x="0px" y="0px"
	 width="1400px" height="500px" viewBox="0 0 1400 500" enable-background="new 0 0 1400 500" xml:space="preserve">
<circle fill-rule="evenodd" clip-rule="evenodd" fill="none" stroke="#2E3192" stroke-miterlimit="10" cx="218.225" cy="193.758" r="10.63"/>
<circle fill-rule="evenodd" clip-rule="evenodd" fill="none" stroke="#2E3192" stroke-miterlimit="10" cx="272.367" cy="193.758" r="10.63"/>
<circle fill-rule="evenodd" clip-rule="evenodd" fill="none" stroke="#2E3192" stroke-miterlimit="10" cx="345.359" cy="193.758" r="10.63"/>
<circle fill-rule="evenodd" clip-rule="evenodd" fill="none" stroke="#2E3192" stroke-miterlimit="10" cx="399.218" cy="193.758" r="10.63"/>
<circle fill-rule="evenodd" clip-rule="evenodd" fill="none" stroke="#2E3192" stroke-miterlimit="10" cx="453.075" cy="193.758" r="10.63"/>
<circle fill-rule="evenodd" clip-rule="evenodd" fill="none" stroke="#2E3192" stroke-miterlimit="10" cx="524.65" cy="193.758" r="10.63"/>
<circle fill-rule="evenodd" clip-rule="evenodd" fill="none" stroke="#2E3192" stroke-miterlimit="10" cx="578.509" cy="193.758" r="10.63"/>
<circle fill-rule="evenodd" clip-rule="evenodd" fill="none" stroke="#2E3192" stroke-miterlimit="10" cx="632.367" cy="193.758" r="10.63"/>
<circle fill-rule="evenodd" clip-rule="evenodd" fill="none" stroke="#2E3192" stroke-miterlimit="10" cx="700.398" cy="193.758" r="10.63"/>
<circle fill-rule="evenodd" clip-rule="evenodd" fill="none" stroke="#2E3192" stroke-miterlimit="10" cx="983.863" cy="193.758" r="10.63"/>
<circle fill-rule="evenodd" clip-rule="evenodd" fill="none" stroke="#2E3192" stroke-miterlimit="10" cx="842.131" cy="193.758" r="10.63"/>
<circle fill-rule="evenodd" clip-rule="evenodd" fill="none" stroke="#2E3192" stroke-miterlimit="10" cx="1125.596" cy="193.758" r="10.63"/>
<rect x="612.567" y="255.312" fill-rule="evenodd" clip-rule="evenodd" fill="none" stroke="#2E3192" stroke-miterlimit="10" width="39.6" height="39.6"/>
<rect x="558.709" y="255.312" fill-rule="evenodd" clip-rule="evenodd" fill="none" stroke="#2E3192" stroke-miterlimit="10" width="39.6" height="39.6"/>
<rect x="504.851" y="255.312" fill-rule="evenodd" clip-rule="evenodd" fill="none" stroke="#2E3192" stroke-miterlimit="10" width="39.6" height="39.6"/>
<rect x="325.559" y="255.312" fill-rule="evenodd" clip-rule="evenodd" fill="none" stroke="#2E3192" stroke-miterlimit="10" width="39.6" height="39.6"/>
<rect x="379.417" y="255.312" fill-rule="evenodd" clip-rule="evenodd" fill="none" stroke="#2E3192" stroke-miterlimit="10" width="39.6" height="39.6"/>
<rect x="433.276" y="255.312" fill-rule="evenodd" clip-rule="evenodd" fill="none" stroke="#2E3192" stroke-miterlimit="10" width="39.6" height="39.6"/>
<rect x="198" y="255.312" fill-rule="evenodd" clip-rule="evenodd" fill="none" stroke="#2E3192" stroke-miterlimit="10" width="39.6" height="39.6"/>
<rect x="251.858" y="255.312" fill-rule="evenodd" clip-rule="evenodd" fill="none" stroke="#2E3192" stroke-miterlimit="10" width="39.6" height="39.6"/>
<rect x="1105.795" y="255.312" fill-rule="evenodd" clip-rule="evenodd" fill="none" stroke="#2E3192" stroke-miterlimit="10" width="39.601" height="39.6"/>
<rect x="964.063" y="255.312" fill-rule="evenodd" clip-rule="evenodd" fill="none" stroke="#2E3192" stroke-miterlimit="10" width="39.601" height="39.6"/>
<rect x="822.331" y="255.312" fill-rule="evenodd" clip-rule="evenodd" fill="none" stroke="#2E3192" stroke-miterlimit="10" width="39.6" height="39.6"/>
<rect x="680.599" y="255.312" fill-rule="evenodd" clip-rule="evenodd" fill="none" stroke="#2E3192" stroke-miterlimit="10" width="39.6" height="39.6"/>
<rect x="1034.929" y="255.312" fill-rule="evenodd" clip-rule="evenodd" fill="none" stroke="#2E3192" stroke-miterlimit="10" width="39.601" height="39.6"/>
<rect x="893.197" y="255.312" fill-rule="evenodd" clip-rule="evenodd" fill="none" stroke="#2E3192" stroke-miterlimit="10" width="39.6" height="39.6"/>
<rect x="751.465" y="255.312" fill-rule="evenodd" clip-rule="evenodd" fill="none" stroke="#2E3192" stroke-miterlimit="10" width="39.6" height="39.6"/>
<circle fill-rule="evenodd" clip-rule="evenodd" fill="none" stroke="#2E3192" stroke-miterlimit="10" cx="913.215" cy="193.758" r="8.504"/>
<line fill-rule="evenodd" clip-rule="evenodd" fill="none" stroke="#000000" stroke-miterlimit="10" x1="1261.973" y1="108.269" x2="1343.801" y2="250"/>
<line fill-rule="evenodd" clip-rule="evenodd" fill="none" stroke="#000000" stroke-miterlimit="10" x1="153.156" y1="108.271" x2="71.326" y2="250.002"/>
<line fill-rule="evenodd" clip-rule="evenodd" fill="none" stroke="#000000" stroke-miterlimit="10" x1="71.325" y1="250" x2="153.152" y2="391.726"/>
<line fill-rule="evenodd" clip-rule="evenodd" fill="none" stroke="#000000" stroke-miterlimit="10" x1="153.15" y1="391.732" x2="1261.968" y2="391.732"/>
<line fill-rule="evenodd" clip-rule="evenodd" fill="none" stroke="#000000" stroke-miterlimit="10" x1="1261.974" y1="108.268" x2="153.156" y2="108.268"/>
<line fill-rule="evenodd" clip-rule="evenodd" fill="none" stroke="#000000" stroke-miterlimit="10" x1="1343.801" y1="249.998" x2="1261.972" y2="391.731"/>
<circle fill-rule="evenodd" clip-rule="evenodd" fill="none" stroke="#000000" stroke-miterlimit="10" cx="707.563" cy="121.874" r="4.606"/>
<circle fill-rule="evenodd" clip-rule="evenodd" fill="none" stroke="#000000" stroke-miterlimit="10" cx="1175.563" cy="121.874" r="4.606"/>
<circle fill-rule="evenodd" clip-rule="evenodd" fill="none" stroke="#000000" stroke-miterlimit="10" cx="239.562" cy="121.874" r="4.606"/>
<circle fill-rule="evenodd" clip-rule="evenodd" fill="none" stroke="#000000" stroke-miterlimit="10" cx="707.563" cy="378.126" r="4.606"/>
<circle fill-rule="evenodd" clip-rule="evenodd" fill="none" stroke="#000000" stroke-miterlimit="10" cx="1175.563" cy="378.126" r="4.606"/>
<circle fill-rule="evenodd" clip-rule="evenodd" fill="none" stroke="#000000" stroke-miterlimit="10" cx="239.562" cy="378.126" r="4.606"/>
<circle fill-rule="evenodd" clip-rule="evenodd" fill="none" stroke="#2E3192" stroke-miterlimit="10" cx="1225.026" cy="250" r="17.008"/>
<polyline fill-rule="evenodd" clip-rule="evenodd" fill="none" stroke="#ED1C24" stroke-miterlimit="10" points="526.303,217.106 
	527.381,217.106 527.381,217.955 526.303,217.955 526.303,219.735 525.315,219.735 525.315,217.955 521.847,217.955 
	521.847,217.106 525.497,212.285 526.303,212.285 526.303,217.106 "/>
<polygon fill-rule="evenodd" clip-rule="evenodd" fill="none" stroke="#ED1C24" stroke-miterlimit="10" points="522.821,217.106 
	525.315,217.106 525.315,213.75 "/>
<path fill-rule="evenodd" clip-rule="evenodd" fill="none" stroke="#ED1C24" stroke-miterlimit="10" d="M579.183,212.308
	c1.111,0.106,1.954,0.982,1.949,2.023c-0.004,0.473-0.162,0.934-0.455,1.321c-0.407,0.515-0.883,0.979-1.416,1.381
	c-0.55,0.435-1.091,0.879-1.623,1.333c-0.146,0.161-0.284,0.326-0.416,0.497h3.923v0.884h-5.274
	c-0.018-0.219,0.018-0.438,0.104-0.642c0.364-0.698,0.887-1.314,1.532-1.805c0.802-0.542,1.526-1.178,2.157-1.89
	c0.425-0.432,0.56-1.047,0.351-1.6c-0.243-0.506-0.797-0.82-1.391-0.787c-0.761-0.057-1.438,0.456-1.532,1.163l-0.039,0.327
	l-1-0.097c0.035-0.462,0.196-0.908,0.467-1.296c0.521-0.583,1.307-0.897,2.118-0.848L579.183,212.308z"/>
<path fill-rule="evenodd" clip-rule="evenodd" fill="none" stroke="#ED1C24" stroke-miterlimit="10" d="M633.316,219.747h-0.974
	v-5.827c-0.577,0.476-1.241,0.849-1.962,1.103v-0.885c0.521-0.229,1.005-0.522,1.442-0.872c0.347-0.283,0.642-0.619,0.87-0.993
	h0.623V219.747z"/>
<polyline fill-rule="evenodd" clip-rule="evenodd" fill="none" stroke="#ED1C24" stroke-miterlimit="10" points="346.917,217.106 
	347.936,217.106 347.936,217.955 346.917,217.955 346.917,219.735 345.984,219.735 345.984,217.955 342.705,217.955 
	342.705,217.106 346.156,212.285 346.917,212.285 346.917,217.106 "/>
<polygon fill-rule="evenodd" clip-rule="evenodd" fill="none" stroke="#ED1C24" stroke-miterlimit="10" points="343.626,217.106 
	345.984,217.106 345.984,213.75 "/>
<path fill-rule="evenodd" clip-rule="evenodd" fill="none" stroke="#ED1C24" stroke-miterlimit="10" d="M399.658,212.308
	c1.05,0.106,1.847,0.982,1.842,2.023c-0.003,0.473-0.153,0.934-0.43,1.321c-0.385,0.515-0.834,0.979-1.338,1.381
	c-0.52,0.435-1.032,0.879-1.535,1.333c-0.137,0.161-0.268,0.326-0.393,0.497h3.708v0.884h-4.985
	c-0.017-0.219,0.017-0.438,0.099-0.642c0.344-0.698,0.838-1.314,1.449-1.805c0.757-0.542,1.442-1.178,2.038-1.89
	c0.402-0.432,0.53-1.047,0.332-1.6c-0.229-0.506-0.753-0.82-1.313-0.787c-0.72-0.057-1.359,0.456-1.449,1.163l-0.037,0.327
	l-0.946-0.097c0.034-0.462,0.186-0.908,0.442-1.296c0.491-0.583,1.235-0.897,2.001-0.848L399.658,212.308z"/>
<path fill-rule="evenodd" clip-rule="evenodd" fill="none" stroke="#ED1C24" stroke-miterlimit="10" d="M453.722,219.747h-0.921
	v-5.827c-0.545,0.476-1.173,0.849-1.854,1.103v-0.885c0.492-0.229,0.95-0.522,1.363-0.872c0.329-0.283,0.607-0.619,0.823-0.993
	h0.589V219.747z"/>
<polyline fill-rule="evenodd" clip-rule="evenodd" fill="none" stroke="#ED1C24" stroke-miterlimit="10" points="526.303,237.986 
	527.381,237.986 527.381,238.834 526.303,238.834 526.303,240.615 525.315,240.615 525.315,238.834 521.847,238.834 
	521.847,237.986 525.497,233.165 526.303,233.165 526.303,237.986 "/>
<polygon fill-rule="evenodd" clip-rule="evenodd" fill="none" stroke="#ED1C24" stroke-miterlimit="10" points="522.821,237.986 
	525.315,237.986 525.315,234.63 "/>
<path fill-rule="evenodd" clip-rule="evenodd" fill="none" stroke="#ED1C24" stroke-miterlimit="10" d="M579.183,232.899
	c1.111,0.107,1.954,0.982,1.949,2.023c-0.004,0.473-0.162,0.934-0.455,1.321c-0.407,0.515-0.883,0.979-1.416,1.381
	c-0.55,0.435-1.091,0.879-1.623,1.333c-0.146,0.161-0.284,0.326-0.416,0.497h3.923v0.884h-5.274
	c-0.018-0.219,0.018-0.438,0.104-0.642c0.364-0.698,0.887-1.314,1.532-1.805c0.802-0.542,1.526-1.177,2.157-1.89
	c0.425-0.432,0.56-1.047,0.351-1.6c-0.243-0.506-0.797-0.82-1.391-0.787c-0.761-0.057-1.438,0.456-1.532,1.163l-0.039,0.327
	l-1-0.097c0.035-0.462,0.196-0.908,0.467-1.296c0.521-0.583,1.307-0.897,2.118-0.848L579.183,232.899z"/>
<path fill-rule="evenodd" clip-rule="evenodd" fill="none" stroke="#ED1C24" stroke-miterlimit="10" d="M633.316,241.015h-0.974
	v-5.828c-0.577,0.476-1.241,0.849-1.962,1.103v-0.884c0.521-0.229,1.005-0.523,1.442-0.872c0.347-0.284,0.642-0.62,0.87-0.994h0.623
	V241.015z"/>
<path fill-rule="evenodd" clip-rule="evenodd" fill="none" stroke="#ED1C24" stroke-miterlimit="10" d="M453.503,233.309
	c0.878,0.11,1.589,0.72,1.78,1.526c0.232,0.808-0.27,1.643-1.13,1.878c0.913,0.238,1.532,1.031,1.494,1.914
	c0.017,1.122-0.873,2.076-2.066,2.217c-0.712,0.122-1.448,0.006-2.078-0.327c-1.024-0.616-1.406-1.839-0.896-2.871
	c0.278-0.464,0.748-0.801,1.299-0.933c-0.872-0.239-1.384-1.082-1.156-1.902c0.182-0.802,0.893-1.407,1.767-1.502
	C452.844,233.277,453.175,233.277,453.503,233.309"/>
<path fill-rule="evenodd" clip-rule="evenodd" fill="none" stroke="#ED1C24" stroke-miterlimit="10" d="M452.672,237.137
	c-0.751,0.134-1.289,0.753-1.273,1.466c-0.02,0.546,0.285,1.059,0.792,1.333c0.55,0.279,1.217,0.266,1.753-0.036
	c0.738-0.479,0.934-1.418,0.442-2.12C454.005,237.264,453.33,237.011,452.672,237.137"/>
<path fill-rule="evenodd" clip-rule="evenodd" fill="none" stroke="#ED1C24" stroke-miterlimit="10" d="M452.75,234.048
	c-0.594,0.09-1.033,0.565-1.04,1.126c-0.024,0.581,0.423,1.086,1.04,1.175c0.607,0.133,1.23-0.158,1.481-0.69
	c0.231-0.522,0.029-1.125-0.481-1.43C453.455,234.05,453.095,233.985,452.75,234.048z"/>
<path fill-rule="evenodd" clip-rule="evenodd" fill="none" stroke="#ED1C24" stroke-miterlimit="10" d="M218.474,212.308
	c1.11,0.106,1.954,0.982,1.949,2.023c-0.004,0.473-0.163,0.934-0.455,1.321c-0.407,0.515-0.883,0.979-1.416,1.381
	c-0.55,0.435-1.091,0.879-1.624,1.333c-0.145,0.161-0.284,0.326-0.416,0.497h3.923v0.884h-5.274
	c-0.018-0.219,0.018-0.438,0.104-0.642c0.364-0.698,0.887-1.314,1.533-1.805c0.801-0.542,1.526-1.178,2.156-1.89
	c0.425-0.432,0.56-1.047,0.351-1.6c-0.243-0.506-0.797-0.82-1.39-0.787c-0.762-0.057-1.438,0.456-1.533,1.163l-0.039,0.327l-1-0.097
	c0.036-0.462,0.197-0.908,0.468-1.296c0.52-0.583,1.307-0.897,2.118-0.848L218.474,212.308z"/>
<path fill-rule="evenodd" clip-rule="evenodd" fill="none" stroke="#ED1C24" stroke-miterlimit="10" d="M273.05,219.747h-0.974
	v-5.827c-0.577,0.476-1.241,0.849-1.961,1.103v-0.885c0.52-0.229,1.005-0.522,1.442-0.872c0.348-0.283,0.642-0.619,0.87-0.993h0.624
	V219.747z"/>
<polyline fill-rule="evenodd" clip-rule="evenodd" fill="none" stroke="#ED1C24" stroke-miterlimit="10" points="273.177,237.989 
	274.196,237.989 274.196,238.837 273.177,238.837 273.177,240.618 272.243,240.618 272.243,238.837 268.964,238.837 
	268.964,237.989 272.415,233.167 273.177,233.167 273.177,237.989 "/>
<polygon fill-rule="evenodd" clip-rule="evenodd" fill="none" stroke="#ED1C24" stroke-miterlimit="10" points="269.885,237.989 
	272.243,237.989 272.243,234.633 "/>
<path fill-rule="evenodd" clip-rule="evenodd" fill="none" stroke="#ED1C24" stroke-miterlimit="10" d="M345.897,232.899
	c1.05,0.107,1.847,0.982,1.842,2.023c-0.003,0.473-0.153,0.934-0.43,1.321c-0.385,0.515-0.834,0.979-1.338,1.381
	c-0.52,0.435-1.032,0.879-1.535,1.333c-0.137,0.161-0.269,0.326-0.393,0.497h3.709v0.884h-4.986
	c-0.017-0.219,0.017-0.438,0.098-0.642c0.345-0.698,0.839-1.314,1.449-1.805c0.758-0.542,1.443-1.177,2.039-1.89
	c0.402-0.432,0.53-1.047,0.332-1.6c-0.229-0.506-0.753-0.82-1.314-0.787c-0.72-0.057-1.359,0.456-1.449,1.163l-0.037,0.327
	l-0.946-0.097c0.034-0.462,0.186-0.908,0.442-1.296c0.491-0.583,1.235-0.897,2.001-0.848L345.897,232.899z"/>
<path fill-rule="evenodd" clip-rule="evenodd" fill="none" stroke="#ED1C24" stroke-miterlimit="10" d="M400.344,241.012h-0.921
	v-5.827c-0.545,0.476-1.174,0.849-1.854,1.103v-0.885c0.492-0.229,0.95-0.523,1.363-0.872c0.329-0.284,0.607-0.619,0.823-0.994
	h0.589V241.012z"/>
<path fill-rule="evenodd" clip-rule="evenodd" fill="none" stroke="#ED1C24" stroke-miterlimit="10" d="M218.257,233.593
	c0.831,0.11,1.502,0.719,1.683,1.526c0.22,0.808-0.255,1.642-1.068,1.878c0.863,0.238,1.448,1.031,1.412,1.914
	c0.016,1.122-0.825,2.076-1.953,2.217c-0.673,0.122-1.369,0.006-1.965-0.327c-0.968-0.616-1.329-1.839-0.847-2.872
	c0.263-0.463,0.707-0.8,1.228-0.933c-0.824-0.24-1.308-1.082-1.093-1.902c0.173-0.802,0.845-1.407,1.67-1.502
	C217.634,233.561,217.947,233.561,218.257,233.593"/>
<path fill-rule="evenodd" clip-rule="evenodd" fill="none" stroke="#ED1C24" stroke-miterlimit="10" d="M217.471,237.421
	c-0.71,0.134-1.218,0.753-1.204,1.466c-0.019,0.547,0.269,1.059,0.749,1.333c0.52,0.279,1.151,0.266,1.658-0.036
	c0.698-0.479,0.883-1.418,0.418-2.12C218.732,237.547,218.093,237.294,217.471,237.421"/>
<path fill-rule="evenodd" clip-rule="evenodd" fill="none" stroke="#ED1C24" stroke-miterlimit="10" d="M217.545,234.332
	c-0.561,0.09-0.976,0.566-0.982,1.127c-0.022,0.581,0.4,1.086,0.982,1.175c0.574,0.133,1.164-0.158,1.4-0.69
	c0.219-0.522,0.027-1.124-0.455-1.43C218.212,234.333,217.872,234.269,217.545,234.332z"/>
<path fill-rule="evenodd" clip-rule="evenodd" fill="none" stroke="#ED1C24" stroke-miterlimit="10" d="M689.769,233.452
	c0.664,0.054,1.309,0.259,1.882,0.598v1.163h-0.077c-0.661-0.726-1.645-1.067-2.613-0.908c-0.617,0.139-1.139,0.55-1.417,1.118
	c-0.515,1.124-0.507,2.416,0.021,3.532c0.151,0.28,0.354,0.528,0.599,0.731c0.588,0.41,1.333,0.521,2.015,0.299
	c0.531-0.155,1.015-0.44,1.406-0.831h0.066v1.141c-0.877,0.526-1.912,0.726-2.923,0.565c-0.316-0.056-0.623-0.161-0.908-0.31
	c-0.68-0.376-1.185-1.005-1.406-1.75c-0.24-0.796-0.305-1.635-0.188-2.458l0.178-0.742c0.265-0.849,0.882-1.542,1.694-1.904
	C688.625,233.477,689.199,233.394,689.769,233.452"/>
<polyline fill-rule="evenodd" clip-rule="evenodd" fill="none" stroke="#ED1C24" stroke-miterlimit="10" points="693.5,239.941 
	696.733,239.941 696.733,240.793 692.548,240.793 692.548,233.574 693.5,233.574 693.5,239.941 "/>
<polyline fill-rule="evenodd" clip-rule="evenodd" fill="none" stroke="#ED1C24" stroke-miterlimit="10" points="702.026,234.426 
	698.472,234.426 698.472,236.397 701.782,236.397 701.782,237.25 698.472,237.25 698.472,239.941 702.026,239.941 702.026,240.793 
	697.508,240.793 697.508,233.574 702.026,233.574 702.026,234.426 "/>
<polyline fill-rule="evenodd" clip-rule="evenodd" fill="none" stroke="#ED1C24" stroke-miterlimit="10" points="708.349,240.793 
	707.33,240.793 706.677,238.767 703.92,238.767 703.267,240.793 702.292,240.793 704.728,233.574 705.912,233.574 708.349,240.793 
	"/>
<path fill-rule="evenodd" clip-rule="evenodd" fill="none" stroke="#ED1C24" stroke-miterlimit="10" d="M711.46,233.585
	c0.45-0.002,0.893,0.125,1.273,0.365c0.38,0.24,0.653,0.617,0.764,1.052c0.124,0.529,0.062,1.084-0.177,1.572
	c-0.272,0.503-0.722,0.886-1.263,1.074l2.569,3.145h-1.251l-2.292-2.879h-1.097v2.879h-0.952v-7.22
	C709.844,233.562,710.652,233.565,711.46,233.585"/>
<polyline fill-rule="evenodd" clip-rule="evenodd" fill="none" stroke="#ED1C24" stroke-miterlimit="10" points="704.186,237.948 
	706.411,237.948 705.293,234.548 704.186,237.948 "/>
<path fill-rule="evenodd" clip-rule="evenodd" fill="none" stroke="#ED1C24" stroke-miterlimit="10" d="M709.987,234.393v2.724
	c0.532,0.033,1.066,0.01,1.595-0.066c0.512-0.133,0.887-0.571,0.941-1.096c0.066-0.308,0.035-0.63-0.089-0.919
	c-0.161-0.318-0.467-0.537-0.819-0.587C711.075,234.382,710.53,234.364,709.987,234.393z"/>
<path fill-rule="evenodd" clip-rule="evenodd" fill="none" stroke="#ED1C24" stroke-miterlimit="10" d="M765.694,233.468
	c0.542,0.052,1.07,0.198,1.562,0.432v1.151h-0.077c-0.63-0.578-1.476-0.859-2.326-0.775c-0.358,0.04-0.691,0.205-0.94,0.465
	c-0.325,0.406-0.32,0.983,0.011,1.384c0.295,0.256,0.655,0.425,1.041,0.487c0.505,0.102,1.001,0.242,1.483,0.42
	c0.691,0.269,1.131,0.954,1.085,1.694c-0.003,0.909-0.58,1.717-1.439,2.015c-0.354,0.116-0.724,0.172-1.096,0.167
	c-0.824,0.009-1.639-0.185-2.37-0.565v-1.196h0.066c0.47,0.43,1.042,0.731,1.661,0.875c0.422,0.081,0.855,0.073,1.273-0.022
	c0.531-0.115,0.91-0.586,0.908-1.129c0.007-0.25-0.066-0.494-0.211-0.698l-0.276-0.244c-0.427-0.18-0.873-0.314-1.329-0.398
	c-0.474-0.075-0.926-0.248-1.328-0.509c-0.472-0.363-0.736-0.934-0.709-1.528c0-0.724,0.4-1.389,1.041-1.727
	c0.424-0.232,0.901-0.347,1.384-0.333L765.694,233.468"/>
<path fill-rule="evenodd" clip-rule="evenodd" fill="none" stroke="#ED1C24" stroke-miterlimit="10" d="M755.12,233.601
	c0.875,0.045,1.697,0.43,2.292,1.074c0.479,0.56,0.767,1.258,0.819,1.993c0.149,1.073-0.156,2.161-0.842,3.001
	c-0.316,0.362-0.715,0.643-1.162,0.819c-0.384,0.158-0.793,0.248-1.207,0.266c-0.819,0.03-1.639,0.038-2.458,0.022v-7.208h2.126
	L755.12,233.601"/>
<polyline fill-rule="evenodd" clip-rule="evenodd" fill="none" stroke="#ED1C24" stroke-miterlimit="10" points="761.83,234.299 
	760.911,234.299 760.911,240.046 761.83,240.046 761.83,240.776 759.028,240.776 759.028,240.046 759.947,240.046 759.947,234.299 
	759.028,234.299 759.028,233.568 761.83,233.568 761.83,234.299 "/>
<path fill-rule="evenodd" clip-rule="evenodd" fill="none" stroke="#ED1C24" stroke-miterlimit="10" d="M770.943,233.59
	c0.629,0.022,1.225,0.288,1.66,0.742c0.216,0.242,0.364,0.536,0.433,0.853c0.149,0.625,0.041,1.283-0.3,1.827
	c-0.278,0.407-0.677,0.716-1.14,0.886c-0.413,0.141-0.849,0.205-1.285,0.188h-0.808v2.69h-0.964v-7.208
	C769.341,233.545,770.143,233.553,770.943,233.59"/>
<polyline fill-rule="evenodd" clip-rule="evenodd" fill="none" stroke="#ED1C24" stroke-miterlimit="10" points="784.23,240.776 
	783.223,240.776 782.569,238.761 779.801,238.761 779.148,240.776 778.185,240.776 780.621,233.568 781.794,233.568 784.23,240.776 
	"/>
<polyline fill-rule="evenodd" clip-rule="evenodd" fill="none" stroke="#ED1C24" stroke-miterlimit="10" points="774.963,239.924 
	778.185,239.924 778.185,240.776 773.999,240.776 773.999,233.568 774.963,233.568 774.963,239.924 "/>
<polyline fill-rule="evenodd" clip-rule="evenodd" fill="none" stroke="#ED1C24" stroke-miterlimit="10" points="787.065,236.746 
	788.947,233.568 789.966,233.568 787.53,237.587 787.53,240.776 786.566,240.776 786.566,237.687 784.131,233.568 785.193,233.568 
	787.065,236.746 "/>
<path fill-rule="evenodd" clip-rule="evenodd" fill="none" stroke="#ED1C24" stroke-miterlimit="10" d="M753.525,234.388v5.569
	c0.618,0.043,1.239,0.01,1.85-0.1c0.952-0.183,1.684-0.954,1.815-1.916c0.142-0.74,0.068-1.504-0.21-2.204
	c-0.32-0.651-0.927-1.114-1.639-1.251C754.741,234.394,754.133,234.361,753.525,234.388"/>
<polyline fill-rule="evenodd" clip-rule="evenodd" fill="none" stroke="#ED1C24" stroke-miterlimit="10" points="780.078,237.942 
	782.293,237.942 781.186,234.542 780.078,237.942 "/>
<path fill-rule="evenodd" clip-rule="evenodd" fill="none" stroke="#ED1C24" stroke-miterlimit="10" d="M769.504,234.388v2.879
	c0.532,0.04,1.068,0.01,1.594-0.089c0.629-0.173,1.047-0.767,0.997-1.417c0.056-0.643-0.402-1.217-1.041-1.307
	C770.54,234.382,770.021,234.36,769.504,234.388z"/>
<path fill-rule="evenodd" clip-rule="evenodd" fill="none" stroke="#ED1C24" stroke-miterlimit="10" d="M836.927,233.446
	c0.542,0.052,1.07,0.198,1.562,0.432v1.152h-0.077c-0.63-0.578-1.476-0.86-2.325-0.775c-0.358,0.041-0.691,0.205-0.941,0.465
	c-0.324,0.406-0.32,0.983,0.011,1.384l0.288,0.233c0.506,0.196,1.028,0.348,1.562,0.454c0.446,0.083,0.865,0.278,1.218,0.565
	c0.366,0.352,0.563,0.843,0.543,1.351c-0.004,0.909-0.581,1.717-1.439,2.015c-0.354,0.116-0.725,0.172-1.097,0.166
	c-0.824,0.009-1.638-0.185-2.369-0.565v-1.196h0.066c0.605,0.575,1.401,0.906,2.236,0.93c0.426,0.037,0.851-0.082,1.196-0.332
	c0.272-0.206,0.426-0.533,0.409-0.875c0.007-0.249-0.066-0.494-0.21-0.697l-0.277-0.244c-0.431-0.169-0.875-0.303-1.328-0.399
	c-0.475-0.074-0.927-0.248-1.329-0.509c-0.473-0.362-0.738-0.933-0.709-1.528c0-0.725,0.4-1.389,1.041-1.728
	c0.424-0.232,0.901-0.347,1.384-0.332L836.927,233.446"/>
<polyline fill-rule="evenodd" clip-rule="evenodd" fill="none" stroke="#ED1C24" stroke-miterlimit="10" points="844.291,234.398 
	840.736,234.398 840.736,236.369 844.047,236.369 844.047,237.222 840.736,237.222 840.736,239.901 844.291,239.901 
	844.291,240.754 839.772,240.754 839.772,233.545 844.291,233.545 844.291,234.398 "/>
<polygon fill-rule="evenodd" clip-rule="evenodd" fill="none" stroke="#ED1C24" stroke-miterlimit="10" points="850.402,234.398 
	847.978,234.398 847.978,240.754 847.015,240.754 847.015,234.398 844.601,234.398 844.601,233.545 850.402,233.545 "/>
<path fill-rule="evenodd" clip-rule="evenodd" fill="none" stroke="#ED1C24" stroke-miterlimit="10" d="M903.425,233.685
	c0.621-0.002,1.218,0.241,1.661,0.676c0.217,0.219,0.367,0.496,0.432,0.797c0.163,0.66,0.034,1.358-0.354,1.916
	c-0.291,0.375-0.683,0.659-1.129,0.82l2.657,3.244h-1.296l-2.358-2.968h-1.141v2.968h-0.985v-7.463
	C901.749,233.662,902.587,233.666,903.425,233.685"/>
<polyline fill-rule="evenodd" clip-rule="evenodd" fill="none" stroke="#ED1C24" stroke-miterlimit="10" points="911.939,234.56 
	908.264,234.56 908.264,236.597 911.696,236.597 911.696,237.483 908.264,237.483 908.264,240.251 911.939,240.251 911.939,241.137 
	907.278,241.137 907.278,233.674 911.939,233.674 911.939,234.56 "/>
<polyline fill-rule="evenodd" clip-rule="evenodd" fill="none" stroke="#ED1C24" stroke-miterlimit="10" points="918.473,241.137 
	917.432,241.137 916.757,239.056 913.899,239.056 913.225,241.137 912.217,241.137 914.73,233.674 915.959,233.674 918.473,241.137 
	"/>
<path fill-rule="evenodd" clip-rule="evenodd" fill="none" stroke="#ED1C24" stroke-miterlimit="10" d="M921.385,233.685
	c0.911-0.025,1.802,0.272,2.514,0.842c0.677,0.606,1.09,1.452,1.151,2.358c0.126,0.962-0.09,1.938-0.608,2.757
	c-0.468,0.712-1.202,1.207-2.038,1.373c-0.493,0.087-0.993,0.128-1.494,0.122h-1.717v-7.463
	C919.924,233.662,920.654,233.665,921.385,233.685"/>
<path fill-rule="evenodd" clip-rule="evenodd" fill="none" stroke="#ED1C24" stroke-miterlimit="10" d="M920.179,234.527v5.758
	c0.64,0.044,1.283,0.011,1.915-0.1c0.529-0.115,1.008-0.398,1.362-0.809c0.353-0.445,0.551-0.993,0.564-1.561
	c0.097-0.753-0.051-1.518-0.421-2.182c-0.369-0.516-0.918-0.875-1.539-1.007C921.438,234.533,920.808,234.5,920.179,234.527"/>
<polyline fill-rule="evenodd" clip-rule="evenodd" fill="none" stroke="#ED1C24" stroke-miterlimit="10" points="914.177,238.203 
	916.479,238.203 915.317,234.682 914.177,238.203 "/>
<path fill-rule="evenodd" clip-rule="evenodd" fill="none" stroke="#ED1C24" stroke-miterlimit="10" d="M901.896,234.527v2.813
	c0.429,0.008,0.856,0.004,1.285-0.011c0.683,0.004,1.26-0.506,1.34-1.185c0.087-0.411-0.002-0.841-0.244-1.185
	c-0.27-0.271-0.637-0.422-1.019-0.421C902.805,234.521,902.351,234.517,901.896,234.527z"/>
<path fill-rule="evenodd" clip-rule="evenodd" fill="none" stroke="#ED1C24" stroke-miterlimit="10" d="M983.979,233.466
	c1.227,0.089,2.264,0.941,2.591,2.126l0.178,0.753c0.119,0.811,0.063,1.638-0.166,2.425c-0.289,1.081-1.18,1.897-2.281,2.093
	l-0.676,0.066c-0.769,0.034-1.521-0.237-2.093-0.753c-0.401-0.389-0.698-0.873-0.863-1.406c-0.3-1.035-0.296-2.134,0.011-3.167
	l0.266-0.642c0.154-0.284,0.353-0.542,0.587-0.764C982.207,233.619,983.097,233.353,983.979,233.466"/>
<path fill-rule="evenodd" clip-rule="evenodd" fill="none" stroke="#ED1C24" stroke-miterlimit="10" d="M972.308,233.5
	c0.536,0.062,1.06,0.208,1.551,0.432v1.14h-0.078c-0.551-0.486-1.258-0.761-1.993-0.775c-0.47-0.034-0.932,0.14-1.262,0.476
	c-0.308,0.408-0.303,0.97,0.011,1.373c0.185,0.203,0.429,0.342,0.697,0.398c0.617,0.126,1.225,0.296,1.816,0.51
	c0.688,0.266,1.127,0.946,1.085,1.683c0.007,0.737-0.382,1.421-1.019,1.793c-0.272,0.181-0.583,0.294-0.908,0.333
	c-1.014,0.128-2.044-0.049-2.956-0.509v-1.196h0.066c0.604,0.569,1.396,0.899,2.226,0.93c0.424,0.024,0.845-0.092,1.195-0.332
	c0.262-0.214,0.409-0.537,0.399-0.875l-0.045-0.387c-0.072-0.231-0.23-0.425-0.442-0.543c-0.423-0.182-0.865-0.315-1.318-0.398
	c-0.467-0.085-0.914-0.258-1.317-0.509c-0.472-0.358-0.737-0.925-0.708-1.517c-0.014-0.565,0.235-1.105,0.675-1.461
	c0.488-0.404,1.105-0.616,1.738-0.598L972.308,233.5"/>
<polyline fill-rule="evenodd" clip-rule="evenodd" fill="none" stroke="#ED1C24" stroke-miterlimit="10" points="980.181,234.452 
	977.767,234.452 977.767,240.774 976.814,240.774 976.814,234.452 974.4,234.452 974.4,233.599 980.181,233.599 980.181,234.452 "/>
<path fill-rule="evenodd" clip-rule="evenodd" fill="none" stroke="#ED1C24" stroke-miterlimit="10" d="M990.29,233.622
	c0.598-0.019,1.177,0.215,1.595,0.642c0.205,0.213,0.35,0.477,0.421,0.764c0.118,0.524,0.06,1.073-0.166,1.561
	c-0.276,0.502-0.73,0.881-1.273,1.063l2.558,3.123h-1.24l-2.27-2.846h-1.097v2.846h-0.952v-7.175
	C988.674,233.576,989.482,233.583,990.29,233.622"/>
<polyline fill-rule="evenodd" clip-rule="evenodd" fill="none" stroke="#ED1C24" stroke-miterlimit="10" points="998.473,234.452 
	994.94,234.452 994.94,236.412 998.229,236.412 998.229,237.264 994.94,237.264 994.94,239.933 998.473,239.933 998.473,240.774 
	993.988,240.774 993.988,233.599 998.473,233.599 998.473,234.452 "/>
<path fill-rule="evenodd" clip-rule="evenodd" fill="none" stroke="#ED1C24" stroke-miterlimit="10" d="M983.137,234.319
	c-0.442,0.086-0.838,0.335-1.107,0.698c-0.309,0.45-0.496,0.973-0.542,1.517c-0.128,0.812-0.028,1.644,0.288,2.403
	c0.199,0.422,0.534,0.766,0.952,0.974c0.571,0.253,1.223,0.253,1.794,0c0.424-0.2,0.762-0.546,0.952-0.974
	c0.24-0.551,0.354-1.149,0.332-1.75c0.026-0.606-0.091-1.209-0.343-1.761c-0.317-0.726-1.047-1.183-1.839-1.151L983.137,234.319"/>
<path fill-rule="evenodd" clip-rule="evenodd" fill="none" stroke="#ED1C24" stroke-miterlimit="10" d="M988.817,234.418v2.713
	c0.41,0.016,0.82,0.009,1.229-0.022c0.661,0.011,1.222-0.483,1.295-1.141c0.084-0.393,0-0.802-0.232-1.129
	c-0.259-0.258-0.608-0.405-0.974-0.41C989.696,234.413,989.257,234.409,988.817,234.418z"/>
<path fill-rule="evenodd" clip-rule="evenodd" fill="none" stroke="#ED1C24" stroke-miterlimit="10" d="M1043.358,233.449
	c0.542,0.057,1.07,0.207,1.561,0.443v1.151h-0.066c-0.634-0.576-1.483-0.857-2.336-0.775c-0.446,0.029-0.85,0.278-1.074,0.665
	c-0.26,0.514-0.063,1.142,0.443,1.417c0.501,0.199,1.021,0.351,1.55,0.454c0.449,0.086,0.871,0.28,1.229,0.564
	c0.462,0.464,0.65,1.135,0.498,1.771c-0.154,0.743-0.688,1.349-1.406,1.595c-0.351,0.129-0.723,0.189-1.097,0.177
	c-0.824,0.009-1.638-0.185-2.369-0.565v-1.207h0.066c0.603,0.581,1.4,0.916,2.236,0.941c0.428,0.022,0.852-0.094,1.207-0.332
	c0.262-0.214,0.409-0.537,0.398-0.875l-0.044-0.398c-0.072-0.231-0.231-0.425-0.443-0.542c-0.426-0.183-0.872-0.317-1.328-0.399
	c-0.474-0.083-0.925-0.26-1.329-0.521c-0.476-0.359-0.742-0.932-0.708-1.528c-0.002-0.725,0.398-1.39,1.04-1.728
	c0.424-0.232,0.901-0.347,1.385-0.332L1043.358,233.449"/>
<polyline fill-rule="evenodd" clip-rule="evenodd" fill="none" stroke="#ED1C24" stroke-miterlimit="10" points="1051.286,234.412 
	1048.861,234.412 1048.861,240.779 1047.897,240.779 1047.897,234.412 1045.473,234.412 1045.473,233.548 1051.286,233.548 
	1051.286,234.412 "/>
<polyline fill-rule="evenodd" clip-rule="evenodd" fill="none" stroke="#ED1C24" stroke-miterlimit="10" points="1057.243,240.779 
	1056.235,240.779 1055.582,238.764 1052.814,238.764 1052.161,240.779 1051.197,240.779 1053.622,233.548 1054.808,233.548 
	1057.243,240.779 "/>
<path fill-rule="evenodd" clip-rule="evenodd" fill="none" stroke="#ED1C24" stroke-miterlimit="10" d="M1060.366,233.571
	c0.45-0.002,0.893,0.125,1.273,0.365c0.38,0.24,0.653,0.616,0.764,1.052c0.112,0.53,0.05,1.081-0.177,1.573
	c-0.278,0.503-0.731,0.885-1.273,1.074l2.58,3.145h-1.252l-2.292-2.879h-1.096v2.879h-0.964v-7.231
	C1058.742,233.524,1059.555,233.532,1060.366,233.571"/>
<polyline fill-rule="evenodd" clip-rule="evenodd" fill="none" stroke="#ED1C24" stroke-miterlimit="10" points="1069.169,234.412 
	1066.744,234.412 1066.744,240.779 1065.78,240.779 1065.78,234.412 1063.355,234.412 1063.355,233.548 1069.169,233.548 
	1069.169,234.412 "/>
<polyline fill-rule="evenodd" clip-rule="evenodd" fill="none" stroke="#ED1C24" stroke-miterlimit="10" points="1053.08,237.944 
	1055.306,237.944 1054.198,234.534 1053.08,237.944 "/>
<path fill-rule="evenodd" clip-rule="evenodd" fill="none" stroke="#ED1C24" stroke-miterlimit="10" d="M1058.894,234.379v2.724
	c0.413,0.008,0.826,0.004,1.24-0.011c0.662,0.002,1.22-0.494,1.295-1.151c0.067-0.308,0.036-0.63-0.089-0.919
	c-0.16-0.317-0.467-0.536-0.819-0.586C1059.98,234.368,1059.437,234.35,1058.894,234.379z"/>
<path fill-rule="evenodd" clip-rule="evenodd" fill="none" stroke="#ED1C24" stroke-miterlimit="10" d="M1128.749,233.447
	c1.226,0.091,2.263,0.942,2.591,2.126c0.297,1.039,0.297,2.139,0,3.178c-0.281,1.086-1.175,1.906-2.281,2.093
	c-0.664,0.126-1.351,0.065-1.981-0.177c-0.8-0.369-1.398-1.068-1.64-1.916c-0.298-1.035-0.298-2.132,0-3.167l0.277-0.642
	c0.153-0.284,0.352-0.542,0.587-0.764C1126.977,233.597,1127.866,233.332,1128.749,233.447"/>
<path fill-rule="evenodd" clip-rule="evenodd" fill="none" stroke="#ED1C24" stroke-miterlimit="10" d="M1117.078,233.48
	c0.535,0.066,1.058,0.211,1.55,0.432v1.141h-0.077c-0.555-0.489-1.266-0.764-2.005-0.775c-0.466-0.032-0.924,0.142-1.251,0.477
	c-0.309,0.407-0.304,0.97,0.012,1.373c0.185,0.203,0.429,0.342,0.697,0.398c0.616,0.127,1.224,0.297,1.815,0.509
	c0.684,0.273,1.118,0.948,1.086,1.683c0.005,0.736-0.384,1.42-1.019,1.794c-0.275,0.176-0.585,0.289-0.908,0.332
	c-1.015,0.128-2.044-0.049-2.957-0.509v-1.196h0.066c0.605,0.568,1.396,0.899,2.226,0.93c0.424,0.021,0.844-0.096,1.196-0.332
	c0.262-0.214,0.409-0.537,0.398-0.875c0.008-0.25-0.066-0.494-0.21-0.698l-0.277-0.232c-0.424-0.179-0.865-0.313-1.317-0.398
	c-0.468-0.085-0.915-0.258-1.317-0.51c-0.472-0.358-0.737-0.925-0.709-1.517c-0.014-0.565,0.236-1.105,0.676-1.462
	c0.487-0.404,1.105-0.616,1.738-0.598L1117.078,233.48"/>
<polyline fill-rule="evenodd" clip-rule="evenodd" fill="none" stroke="#ED1C24" stroke-miterlimit="10" points="1124.95,234.432 
	1122.537,234.432 1122.537,240.754 1121.585,240.754 1121.585,234.432 1119.171,234.432 1119.171,233.58 1124.95,233.58 
	1124.95,234.432 "/>
<path fill-rule="evenodd" clip-rule="evenodd" fill="none" stroke="#ED1C24" stroke-miterlimit="10" d="M1135.027,233.613
	c0.46,0.012,0.906,0.158,1.284,0.421c0.408,0.268,0.694,0.685,0.797,1.163c0.14,0.623,0.028,1.275-0.31,1.816l-0.255,0.332
	c-0.39,0.383-0.896,0.625-1.439,0.687c-0.504,0.058-1.011,0.076-1.517,0.055v2.668h-0.952v-7.175h1.805L1135.027,233.613"/>
<path fill-rule="evenodd" clip-rule="evenodd" fill="none" stroke="#ED1C24" stroke-miterlimit="10" d="M1127.907,234.299
	c-0.443,0.086-0.838,0.335-1.107,0.697c-0.21,0.271-0.357,0.584-0.432,0.919c-0.206,0.821-0.21,1.679-0.011,2.502
	c0.09,0.331,0.24,0.642,0.442,0.919c0.385,0.485,0.976,0.76,1.595,0.742c0.616,0.02,1.204-0.256,1.583-0.742
	c0.214-0.27,0.365-0.583,0.443-0.919c0.206-0.825,0.206-1.688,0-2.514c-0.09-0.326-0.236-0.633-0.432-0.908
	c-0.382-0.488-0.976-0.765-1.595-0.742L1127.907,234.299"/>
<path fill-rule="evenodd" clip-rule="evenodd" fill="none" stroke="#ED1C24" stroke-miterlimit="10" d="M1133.588,234.399v2.868
	c0.529,0.041,1.062,0.011,1.583-0.088c0.623-0.177,1.041-0.76,1.008-1.406c0.046-0.644-0.413-1.214-1.052-1.307
	C1134.617,234.396,1134.102,234.374,1133.588,234.399z"/>
<path fill-rule="evenodd" clip-rule="evenodd" fill="none" stroke="#ED1C24" stroke-miterlimit="10" d="M704.532,216.851
	c-0.028,0.398,0.028,0.799,0.166,1.174c0.173,0.458,0.579,0.789,1.063,0.864c0.423,0.086,0.863,0.044,1.262-0.122
	c0.428-0.197,0.728-0.597,0.798-1.063c0.041-0.275,0.063-0.553,0.066-0.831v-4.595h0.974v4.573c0.002,0.44-0.051,0.879-0.154,1.307
	c-0.193,0.67-0.702,1.204-1.362,1.429c-0.736,0.223-1.522,0.223-2.259,0c-0.667-0.214-1.181-0.752-1.362-1.429
	c-0.117-0.425-0.173-0.865-0.166-1.307v-4.573h0.975V216.851"/>
<polyline fill-rule="evenodd" clip-rule="evenodd" fill="none" stroke="#ED1C24" stroke-miterlimit="10" points="690.193,213.02 
	689.252,213.02 689.252,218.855 690.193,218.855 690.193,219.597 687.348,219.597 687.348,218.855 688.277,218.855 688.277,213.02 
	687.348,213.02 687.348,212.278 690.193,212.278 690.193,213.02 "/>
<polyline fill-rule="evenodd" clip-rule="evenodd" fill="none" stroke="#ED1C24" stroke-miterlimit="10" points="695.686,218.08 
	695.686,212.278 696.593,212.278 696.593,219.597 695.508,219.597 692.274,213.285 692.274,219.597 691.355,219.597 
	691.355,212.278 692.739,212.278 695.686,218.08 "/>
<path fill-rule="evenodd" clip-rule="evenodd" fill="none" stroke="#ED1C24" stroke-miterlimit="10" d="M700.546,212.3
	c0.468,0.035,0.92,0.183,1.317,0.432c0.266,0.184,0.486,0.426,0.643,0.709l0.166,0.476c0.065,0.339,0.073,0.688,0.022,1.03
	c-0.107,0.619-0.474,1.164-1.008,1.495c-0.321,0.206-0.685,0.338-1.063,0.388c-0.512,0.046-1.026,0.061-1.54,0.044v2.724h-0.974
	v-7.319C698.922,212.255,699.734,212.262,700.546,212.3"/>
<polyline fill-rule="evenodd" clip-rule="evenodd" fill="none" stroke="#ED1C24" stroke-miterlimit="10" points="715.439,213.141 
	712.98,213.141 712.98,219.597 712.007,219.597 712.007,213.141 709.548,213.141 709.548,212.278 715.439,212.278 715.439,213.141 
	"/>
<path fill-rule="evenodd" clip-rule="evenodd" fill="none" stroke="#ED1C24" stroke-miterlimit="10" d="M699.084,213.108v2.935
	c0.541,0.049,1.087,0.016,1.617-0.1c0.638-0.171,1.065-0.77,1.019-1.429c0.049-0.655-0.414-1.239-1.063-1.34
	C700.136,213.105,699.609,213.083,699.084,213.108z"/>
<path fill-rule="evenodd" clip-rule="evenodd" fill="none" stroke="#ED1C24" stroke-miterlimit="10" d="M820.346,212.288
	c0.538,0.059,1.063,0.208,1.551,0.443v1.152h-0.066c-0.635-0.576-1.483-0.857-2.337-0.775c-0.446,0.029-0.849,0.278-1.074,0.664
	c-0.25,0.516-0.056,1.136,0.443,1.417c0.502,0.199,1.021,0.351,1.55,0.454c0.451,0.082,0.874,0.276,1.229,0.565
	c0.464,0.463,0.652,1.135,0.498,1.771c-0.146,0.747-0.684,1.357-1.406,1.595c-0.351,0.129-0.723,0.189-1.096,0.177
	c-0.824,0.009-1.639-0.185-2.37-0.565v-1.207h0.066c0.604,0.581,1.4,0.916,2.237,0.941c0.428,0.022,0.851-0.094,1.207-0.332
	c0.259-0.217,0.408-0.537,0.409-0.875l-0.056-0.398c-0.072-0.231-0.23-0.425-0.442-0.542c-0.424-0.181-0.865-0.314-1.317-0.399
	c-0.478-0.082-0.934-0.258-1.34-0.521c-0.475-0.36-0.74-0.933-0.709-1.528c0.007-0.726,0.41-1.388,1.052-1.728
	c0.419-0.233,0.894-0.348,1.373-0.332L820.346,212.288"/>
<path fill-rule="evenodd" clip-rule="evenodd" fill="none" stroke="#ED1C24" stroke-miterlimit="10" d="M825.904,212.288
	c0.541,0.062,1.068,0.211,1.562,0.443v1.152h-0.077c-0.63-0.578-1.476-0.86-2.325-0.775c-0.447,0.027-0.851,0.277-1.074,0.664
	c-0.259,0.512-0.068,1.136,0.432,1.417c0.506,0.197,1.028,0.349,1.562,0.454c0.446,0.083,0.865,0.278,1.218,0.565
	c0.465,0.462,0.654,1.135,0.498,1.771c-0.144,0.744-0.677,1.354-1.396,1.595c-0.351,0.127-0.723,0.187-1.096,0.177
	c-0.827,0.007-1.645-0.187-2.381-0.565v-1.207h0.078c0.602,0.582,1.399,0.917,2.236,0.941c0.425,0.025,0.845-0.092,1.195-0.332
	c0.27-0.209,0.422-0.535,0.41-0.875c0.01-0.253-0.064-0.502-0.21-0.708l-0.277-0.232c-0.554-0.212-1.124-0.378-1.705-0.499
	c-0.566-0.099-1.07-0.422-1.396-0.897c-0.499-0.828-0.326-1.896,0.41-2.524c0.489-0.407,1.113-0.617,1.749-0.587L825.904,212.288"/>
<polyline fill-rule="evenodd" clip-rule="evenodd" fill="none" stroke="#ED1C24" stroke-miterlimit="10" points="791.7,219.619 
	790.693,219.619 790.04,217.603 787.271,217.603 786.618,219.619 785.644,219.619 788.08,212.388 789.265,212.388 791.7,219.619 "/>
<path fill-rule="evenodd" clip-rule="evenodd" fill="none" stroke="#ED1C24" stroke-miterlimit="10" d="M794.513,212.399
	c0.74-0.007,1.468,0.188,2.104,0.565c0.845,0.579,1.379,1.513,1.45,2.536c0.117,0.935-0.094,1.883-0.598,2.68
	c-0.449,0.689-1.162,1.166-1.971,1.317c-0.476,0.086-0.957,0.127-1.439,0.122h-1.673v-7.23
	C793.096,212.375,793.805,212.379,794.513,212.399"/>
<path fill-rule="evenodd" clip-rule="evenodd" fill="none" stroke="#ED1C24" stroke-miterlimit="10" d="M801.278,212.399
	c0.739-0.003,1.466,0.192,2.104,0.565c0.837,0.585,1.365,1.517,1.439,2.536c0.12,0.936-0.091,1.884-0.599,2.68
	c-0.448,0.69-1.161,1.167-1.971,1.317c-0.475,0.086-0.957,0.127-1.439,0.122h-1.672v-7.23
	C799.854,212.375,800.566,212.379,801.278,212.399"/>
<path fill-rule="evenodd" clip-rule="evenodd" fill="none" stroke="#ED1C24" stroke-miterlimit="10" d="M808.332,212.41
	c0.603-0.007,1.183,0.224,1.616,0.642c0.203,0.22,0.348,0.486,0.421,0.775c0.153,0.64,0.028,1.316-0.343,1.86
	c-0.287,0.357-0.666,0.628-1.097,0.786l2.569,3.145h-1.251l-2.293-2.879h-1.096v2.879h-0.952v-7.23
	C806.716,212.364,807.524,212.371,808.332,212.41"/>
<polyline fill-rule="evenodd" clip-rule="evenodd" fill="none" stroke="#ED1C24" stroke-miterlimit="10" points="816.581,213.251 
	813.027,213.251 813.027,215.223 816.338,215.223 816.338,216.075 813.027,216.075 813.027,218.766 816.581,218.766 
	816.581,219.619 812.063,219.619 812.063,212.388 816.581,212.388 816.581,213.251 "/>
<path fill-rule="evenodd" clip-rule="evenodd" fill="none" stroke="#ED1C24" stroke-miterlimit="10" d="M793.351,213.218v5.57
	c0.618,0.043,1.239,0.01,1.849-0.1c0.955-0.184,1.689-0.953,1.827-1.916c0.142-0.741,0.064-1.506-0.222-2.204
	c-0.319-0.651-0.926-1.115-1.639-1.251C794.565,213.225,793.958,213.191,793.351,213.218"/>
<path fill-rule="evenodd" clip-rule="evenodd" fill="none" stroke="#ED1C24" stroke-miterlimit="10" d="M800.104,213.218v5.57
	c0.622,0.043,1.247,0.01,1.86-0.1c1.082-0.224,1.858-1.177,1.86-2.281c0.096-0.731-0.048-1.472-0.409-2.115
	c-0.351-0.504-0.882-0.854-1.484-0.975C801.327,213.225,800.716,213.192,800.104,213.218"/>
<polyline fill-rule="evenodd" clip-rule="evenodd" fill="none" stroke="#ED1C24" stroke-miterlimit="10" points="787.537,216.784 
	789.763,216.784 788.655,213.374 787.537,216.784 "/>
<path fill-rule="evenodd" clip-rule="evenodd" fill="none" stroke="#ED1C24" stroke-miterlimit="10" d="M806.859,213.218v2.724
	c0.413,0.008,0.827,0.004,1.24-0.011c0.662,0.002,1.22-0.494,1.295-1.151c0.067-0.308,0.036-0.63-0.088-0.919
	c-0.161-0.318-0.467-0.537-0.819-0.587C807.947,213.208,807.402,213.189,806.859,213.218z"/>
<path fill-rule="evenodd" clip-rule="evenodd" fill="none" stroke="#ED1C24" stroke-miterlimit="10" d="M953.914,212.286
	c1.226,0.089,2.264,0.94,2.591,2.126l0.177,0.753c0.12,0.811,0.063,1.638-0.166,2.425c-0.289,1.081-1.179,1.897-2.281,2.093
	l-0.675,0.066c-0.77,0.035-1.522-0.236-2.093-0.753c-0.402-0.389-0.699-0.872-0.864-1.406c-0.302-1.035-0.298-2.134,0.012-3.167
	l0.266-0.642c0.153-0.284,0.352-0.542,0.587-0.764C952.142,212.438,953.031,212.172,953.914,212.286"/>
<polyline fill-rule="evenodd" clip-rule="evenodd" fill="none" stroke="#ED1C24" stroke-miterlimit="10" points="933.163,216.416 
	934.891,212.419 936.22,212.419 936.22,219.594 935.267,219.594 935.267,213.416 933.396,217.623 932.82,217.623 930.96,213.416 
	930.96,219.594 930.063,219.594 930.063,212.419 931.369,212.419 933.163,216.416 "/>
<polyline fill-rule="evenodd" clip-rule="evenodd" fill="none" stroke="#ED1C24" stroke-miterlimit="10" points="942.154,213.271 
	938.622,213.271 938.622,215.231 941.911,215.231 941.911,216.084 938.622,216.084 938.622,218.752 942.154,218.752 
	942.154,219.594 937.67,219.594 937.67,212.419 942.154,212.419 942.154,213.271 "/>
<polyline fill-rule="evenodd" clip-rule="evenodd" fill="none" stroke="#ED1C24" stroke-miterlimit="10" points="946.284,216.416 
	948.022,212.419 949.341,212.419 949.341,219.594 948.389,219.594 948.389,213.416 946.517,217.623 945.941,217.623 
	944.092,213.416 944.092,219.594 943.195,219.594 943.195,212.419 944.502,212.419 946.284,216.416 "/>
<path fill-rule="evenodd" clip-rule="evenodd" fill="none" stroke="#ED1C24" stroke-miterlimit="10" d="M960.226,212.441
	c0.598-0.019,1.176,0.215,1.594,0.642c0.205,0.213,0.351,0.477,0.421,0.764c0.118,0.524,0.06,1.073-0.166,1.562
	c-0.275,0.501-0.73,0.881-1.273,1.063l2.558,3.123h-1.24l-2.27-2.846h-1.096v2.846H957.8v-7.175
	C958.608,212.395,959.417,212.402,960.226,212.441"/>
<polyline fill-rule="evenodd" clip-rule="evenodd" fill="none" stroke="#ED1C24" stroke-miterlimit="10" points="966.05,215.585 
	967.932,212.419 968.95,212.419 966.525,216.416 966.525,219.594 965.563,219.594 965.563,216.527 963.138,212.419 964.2,212.419 
	966.05,215.585 "/>
<path fill-rule="evenodd" clip-rule="evenodd" fill="none" stroke="#ED1C24" stroke-miterlimit="10" d="M953.072,213.139
	c-0.443,0.086-0.838,0.335-1.107,0.698c-0.21,0.271-0.357,0.584-0.432,0.919c-0.204,0.821-0.208,1.679-0.012,2.502
	c0.117,0.486,0.39,0.922,0.775,1.24c0.357,0.287,0.805,0.436,1.263,0.421c0.795,0.024,1.525-0.436,1.849-1.163
	c0.24-0.551,0.354-1.149,0.332-1.75c0.027-0.605-0.091-1.209-0.343-1.761c-0.317-0.725-1.047-1.182-1.838-1.151L953.072,213.139"/>
<path fill-rule="evenodd" clip-rule="evenodd" fill="none" stroke="#ED1C24" stroke-miterlimit="10" d="M958.753,213.238v2.713
	c0.409,0.016,0.819,0.008,1.229-0.022c0.661,0.011,1.223-0.483,1.296-1.14c0.083-0.393-0.001-0.802-0.232-1.129
	c-0.26-0.258-0.609-0.405-0.975-0.41C959.631,213.232,959.191,213.229,958.753,213.238z"/>
<path fill-rule="evenodd" clip-rule="evenodd" fill="none" stroke="#ED1C24" stroke-miterlimit="10" d="M1088.576,216.84
	c-0.025,0.402,0.031,0.805,0.166,1.185c0.17,0.458,0.579,0.787,1.063,0.853c0.543,0.122,1.111,0.013,1.572-0.299
	c0.343-0.33,0.535-0.787,0.531-1.262l0.011-0.443v-4.595h0.975v4.562c0.025,0.535-0.057,1.07-0.243,1.572
	c-0.235,0.55-0.694,0.973-1.263,1.163c-0.734,0.239-1.524,0.239-2.259,0c-0.398-0.125-0.75-0.369-1.008-0.698
	c-0.161-0.216-0.281-0.46-0.354-0.72c-0.116-0.429-0.172-0.873-0.166-1.317v-4.562h0.975V216.84"/>
<path fill-rule="evenodd" clip-rule="evenodd" fill="none" stroke="#ED1C24" stroke-miterlimit="10" d="M1083.926,212.3
	c0.608-0.01,1.195,0.225,1.628,0.653c0.211,0.217,0.356,0.49,0.421,0.786c0.192,0.759-0.021,1.563-0.565,2.126
	c-0.259,0.24-0.564,0.424-0.896,0.542l2.613,3.189h-1.263l-2.325-2.912h-1.107v2.912h-0.975v-7.319
	C1082.279,212.254,1083.104,212.261,1083.926,212.3"/>
<polyline fill-rule="evenodd" clip-rule="evenodd" fill="none" stroke="#ED1C24" stroke-miterlimit="10" points="1098.664,218.069 
	1098.664,212.278 1099.571,212.278 1099.571,219.597 1098.476,219.597 1095.242,213.285 1095.242,219.597 1094.334,219.597 
	1094.334,212.278 1095.719,212.278 1098.664,218.069 "/>
<path fill-rule="evenodd" clip-rule="evenodd" fill="none" stroke="#ED1C24" stroke-miterlimit="10" d="M1082.431,213.119v2.757
	c0.417,0.016,0.835,0.008,1.251-0.022c0.674,0.017,1.245-0.492,1.307-1.163c0.097-0.399,0.012-0.821-0.232-1.151
	c-0.262-0.26-0.615-0.408-0.985-0.41C1083.324,213.113,1082.878,213.11,1082.431,213.119z"/>
<rect x="669.313" y="215.999" fill-rule="evenodd" clip-rule="evenodd" fill="none" stroke="#ED1C24" stroke-miterlimit="10" width="11.126" height="1.819"/>
<rect x="720.358" y="215.999" fill-rule="evenodd" clip-rule="evenodd" fill="none" stroke="#ED1C24" stroke-miterlimit="10" width="11.126" height="1.819"/>
<rect x="744.322" y="215.999" fill-rule="evenodd" clip-rule="evenodd" fill="none" stroke="#ED1C24" stroke-miterlimit="10" width="33.209" height="1.819"/>
<rect x="836.21" y="215.999" fill-rule="evenodd" clip-rule="evenodd" fill="none" stroke="#ED1C24" stroke-miterlimit="10" width="32.863" height="1.819"/>
<rect x="885.417" y="215.999" fill-rule="evenodd" clip-rule="evenodd" fill="none" stroke="#ED1C24" stroke-miterlimit="10" width="33.208" height="1.819"/>
<rect x="978.234" y="215.999" fill-rule="evenodd" clip-rule="evenodd" fill="none" stroke="#ED1C24" stroke-miterlimit="10" width="33.209" height="1.819"/>
<rect x="1028.579" y="215.999" fill-rule="evenodd" clip-rule="evenodd" fill="none" stroke="#ED1C24" stroke-miterlimit="10" width="46.319" height="1.819"/>
<rect x="1105.177" y="215.999" fill-rule="evenodd" clip-rule="evenodd" fill="none" stroke="#ED1C24" stroke-miterlimit="10" width="46.319" height="1.819"/>
<path fill-rule="evenodd" clip-rule="evenodd" fill="none" stroke="#ED1C24" stroke-miterlimit="10" d="M220.243,167.575
	c-1.646,1.857-2.652,4.181-2.874,6.639h-0.958c0.108-1.585,0.556-3.129,1.314-4.531l0.639-1.066l0.688-0.873h-3.696v-0.884h4.888
	V167.575z"/>
<path fill-rule="evenodd" clip-rule="evenodd" fill="none" stroke="#ED1C24" stroke-miterlimit="10" d="M272.496,166.619
	c0.785,0.104,1.429,0.663,1.633,1.417l0.086,0.412l-0.921,0.061c-0.044-0.286-0.168-0.554-0.356-0.775
	c-0.237-0.252-0.572-0.394-0.921-0.388c-0.573,0.034-1.083,0.366-1.339,0.873c-0.288,0.631-0.422,1.319-0.393,2.011
	c0.571-0.887,1.709-1.235,2.689-0.824c0.716,0.312,1.218,0.967,1.326,1.732c0.194,0.94-0.128,1.911-0.847,2.556
	c-0.413,0.339-0.938,0.517-1.474,0.497c-0.935,0.023-1.798-0.492-2.21-1.321c-0.193-0.442-0.314-0.913-0.356-1.393
	c-0.106-0.922-0.057-1.856,0.147-2.762l0.258-0.703l0.356-0.569c0.329-0.417,0.8-0.702,1.327-0.8
	C271.83,166.587,272.165,166.58,272.496,166.619"/>
<path fill-rule="evenodd" clip-rule="evenodd" fill="none" stroke="#ED1C24" stroke-miterlimit="10" d="M271.624,170.071
	c-0.739,0.168-1.244,0.841-1.191,1.587c-0.008,0.466,0.149,0.919,0.442,1.284c0.336,0.394,0.864,0.575,1.375,0.473
	c0.621-0.166,1.069-0.7,1.118-1.333c0.123-0.563-0.018-1.15-0.381-1.6C272.636,170.123,272.12,169.966,271.624,170.071z"/>
<path fill-rule="evenodd" clip-rule="evenodd" fill="none" stroke="#ED1C24" stroke-miterlimit="10" d="M347.657,167.319h-3.009
	l-0.417,1.999c0.94-0.7,2.259-0.612,3.095,0.206c0.459,0.46,0.708,1.087,0.688,1.732c0.028,1.022-0.54,1.968-1.461,2.435
	c-0.792,0.33-1.692,0.294-2.456-0.097c-0.634-0.373-1.043-1.03-1.093-1.757l0.97-0.084c0.038,0.489,0.3,0.936,0.712,1.211
	c0.619,0.355,1.407,0.229,1.879-0.303c0.539-0.653,0.622-1.564,0.208-2.302c-0.287-0.465-0.812-0.736-1.363-0.703
	c-0.552-0.008-1.07,0.261-1.375,0.715l-0.859-0.109l0.725-3.829h3.758V167.319z"/>
<polyline fill-rule="evenodd" clip-rule="evenodd" fill="none" stroke="#ED1C24" stroke-miterlimit="10" points="400.888,171.834 
	401.908,171.834 401.908,172.682 400.888,172.682 400.888,174.463 399.955,174.463 399.955,172.682 396.676,172.682 
	396.676,171.834 400.127,167.013 400.888,167.013 400.888,171.834 "/>
<polygon fill-rule="evenodd" clip-rule="evenodd" fill="none" stroke="#ED1C24" stroke-miterlimit="10" points="397.597,171.834 
	399.955,171.834 399.955,168.479 "/>
<path fill-rule="evenodd" clip-rule="evenodd" fill="none" stroke="#ED1C24" stroke-miterlimit="10" d="M453.659,166.796
	c0.303,0.06,0.59,0.175,0.844,0.339c0.392,0.245,0.674,0.616,0.792,1.042c0.1,0.308,0.104,0.635,0.013,0.945l-0.208,0.424
	c-0.212,0.275-0.499,0.493-0.831,0.63c0.921,0.171,1.562,0.956,1.494,1.829c0.007,0.797-0.437,1.539-1.169,1.951
	c-0.886,0.498-1.988,0.521-2.897,0.061c-0.667-0.383-1.097-1.041-1.156-1.769l0.974-0.133c0.064,0.421,0.264,0.814,0.572,1.127
	c0.639,0.498,1.579,0.45,2.156-0.109c0.633-0.588,0.65-1.537,0.039-2.145c-0.382-0.335-0.915-0.476-1.429-0.375l-0.39,0.073
	l0.117-0.8c0.551,0.046,1.098-0.125,1.507-0.472c0.417-0.475,0.377-1.168-0.091-1.6c-0.543-0.444-1.353-0.444-1.896,0
	c-0.277,0.275-0.447,0.63-0.481,1.006l-0.987-0.158c0.094-0.685,0.521-1.293,1.156-1.647c0.38-0.198,0.812-0.294,1.247-0.279
	L453.659,166.796z"/>
<path fill-rule="evenodd" clip-rule="evenodd" fill="none" stroke="#ED1C24" stroke-miterlimit="10" d="M525.495,166.628
	c1.11,0.106,1.953,0.982,1.948,2.023c-0.004,0.473-0.162,0.934-0.454,1.32c-0.408,0.515-0.884,0.979-1.416,1.381
	c-0.551,0.435-1.092,0.879-1.624,1.333c-0.146,0.161-0.284,0.327-0.416,0.497h3.923v0.884h-5.273
	c-0.019-0.219,0.018-0.438,0.104-0.642c0.364-0.699,0.888-1.314,1.533-1.805c0.801-0.542,1.526-1.178,2.156-1.89
	c0.425-0.431,0.56-1.046,0.351-1.599c-0.242-0.506-0.797-0.82-1.39-0.788c-0.762-0.057-1.438,0.456-1.533,1.163l-0.039,0.327
	l-1-0.097c0.035-0.462,0.196-0.908,0.468-1.296c0.52-0.583,1.307-0.897,2.117-0.848L525.495,166.628z"/>
<path fill-rule="evenodd" clip-rule="evenodd" fill="none" stroke="#ED1C24" stroke-miterlimit="10" d="M579.805,173.789h-0.975
	v-5.827c-0.577,0.476-1.241,0.849-1.962,1.103v-0.885c0.521-0.229,1.006-0.523,1.442-0.872c0.348-0.284,0.642-0.619,0.87-0.994
	h0.624V173.789z"/>
<path fill-rule="evenodd" clip-rule="evenodd" fill="none" stroke="#ED1C24" stroke-miterlimit="10" d="M632.964,167.052
	c0.552,0.108,1.03,0.424,1.325,0.872c0.434,0.713,0.661,1.519,0.662,2.338c0.085,0.888-0.008,1.784-0.272,2.641
	c-0.182,0.601-0.6,1.116-1.17,1.441c-0.838,0.388-1.836,0.313-2.598-0.194l-0.363-0.327l-0.352-0.545l-0.246-0.679
	c-0.3-1.302-0.264-2.65,0.104-3.937c0.204-0.717,0.764-1.298,1.507-1.563C632.017,166.973,632.499,166.956,632.964,167.052"/>
<path fill-rule="evenodd" clip-rule="evenodd" fill="none" stroke="#ED1C24" stroke-miterlimit="10" d="M632.028,167.779
	c-0.307,0.076-0.574,0.252-0.754,0.497c-0.193,0.297-0.326,0.626-0.39,0.969c-0.159,1.02-0.159,2.057,0,3.077
	c0.045,0.321,0.16,0.63,0.338,0.909c0.358,0.566,1.132,0.769,1.754,0.46c0.341-0.194,0.599-0.495,0.728-0.848
	c0.188-0.668,0.271-1.357,0.247-2.047c0.007-0.515-0.027-1.029-0.104-1.539c-0.039-0.324-0.159-0.635-0.351-0.908
	C633.194,167.878,632.599,167.647,632.028,167.779z"/>
<path fill-rule="evenodd" clip-rule="evenodd" fill="none" stroke="#EC008C" stroke-miterlimit="10" d="M910.911,335.379
	l-0.509,12.014l-0.056,3.3c-1.295-0.026-2.591-0.037-3.887-0.033c-0.668,0.02-1.336,0.031-2.004,0.033
	c0.458-5.635,0.778-11.28,0.963-16.931c0.128-2.799,0.19-5.602,0.188-8.404c1.964,0.049,3.928,0.049,5.891,0L910.911,335.379"/>
<path fill-rule="evenodd" clip-rule="evenodd" fill="none" stroke="#EC008C" stroke-miterlimit="10" d="M1041.648,332.955
	l5.769,15.701l0.798,2.038c-2.008-0.047-4.017-0.047-6.023,0c-0.887-3.04-1.896-6.043-3.023-9.002h-9.767
	c-1.466,2.974-2.876,5.976-4.229,9.002c-1.422-0.027-2.841-0.038-4.263-0.033c-0.66,0.019-1.321,0.03-1.982,0.033
	c1.567-2.787,3.081-5.604,4.54-8.449c2.352-4.456,4.675-8.933,6.965-13.42c0.59-1.144,1.158-2.3,1.705-3.466
	c2.288,0.054,4.577,0.054,6.865,0L1041.648,332.955"/>
<path fill-rule="evenodd" clip-rule="evenodd" fill="none" stroke="#EC008C" stroke-miterlimit="10" d="M918.607,335.391
	l-1.439,1.805l1.162,1.672c3.012,3.956,6.041,7.896,9.091,11.826c-1.55-0.027-3.101-0.038-4.65-0.033
	c-0.757,0.019-1.514,0.03-2.271,0.033c-0.751-1.234-1.546-2.442-2.38-3.621l-5.05-7.208l-1.871-2.58
	c2.737-3.307,5.422-6.66,8.05-10.054c0.473-0.613,0.931-1.237,1.373-1.872c1.414,0.025,2.827,0.037,4.241,0.033
	c0.763-0.008,1.529-0.02,2.292-0.033L918.607,335.391"/>
<path fill-rule="evenodd" clip-rule="evenodd" fill="none" stroke="#EC008C" stroke-miterlimit="10" d="M952.955,329.367
	c-1.688-0.102-3.38-0.157-5.071-0.166h-4.507c-1.031,0.02-2.069,0.045-3.101,0.078l-0.299,6.588
	c3.713,0.077,7.428,0.059,11.14-0.056c-0.12,1.345-0.209,2.693-0.266,4.042c-3.71-0.084-7.421-0.065-11.129,0.055l-0.31,6.943
	c0.768,0.016,1.535,0.023,2.303,0.022c2.624-0.022,5.238-0.059,7.862-0.111l2.69-0.133c-0.128,1.352-0.216,2.707-0.266,4.064
	c-6.166-0.045-12.315-0.045-18.48,0l0.531-7.109c0.286-5.229,0.496-10.466,0.631-15.701v-2.525c6.163,0.046,12.329,0.046,18.492,0
	L952.955,329.367"/>
<path fill-rule="evenodd" clip-rule="evenodd" fill="none" stroke="#EC008C" stroke-miterlimit="10" d="M1060.859,335.379
	l-0.509,12.014l-0.056,3.3c-1.291-0.026-2.584-0.037-3.875-0.033c-0.672,0.02-1.344,0.031-2.016,0.033
	c0.384-4.552,0.661-9.111,0.83-13.675c0.201-3.883,0.308-7.771,0.321-11.66c1.964,0.049,3.928,0.049,5.891,0L1060.859,335.379"/>
<path fill-rule="evenodd" clip-rule="evenodd" fill="none" stroke="#EC008C" stroke-miterlimit="10" d="M1068.566,335.391
	l-1.45,1.805l1.162,1.672c3.012,3.956,6.042,7.898,9.091,11.826c-1.546-0.027-3.093-0.038-4.64-0.033
	c-0.76,0.019-1.521,0.03-2.28,0.033c-0.751-1.235-1.545-2.442-2.381-3.621l-5.05-7.208l-1.871-2.58
	c2.738-3.307,5.423-6.66,8.05-10.054c0.473-0.613,0.931-1.237,1.373-1.872c1.414,0.025,2.827,0.036,4.241,0.033
	c0.763-0.008,1.529-0.02,2.292-0.033L1068.566,335.391"/>
<path fill-rule="evenodd" clip-rule="evenodd" fill="none" stroke="#EC008C" stroke-miterlimit="10" d="M985.653,332.168
	l-0.576,11.66l-0.222,6.865c-2.259-0.05-4.518-0.05-6.776,0c-1.09-1.965-2.265-3.883-3.521-5.747
	c-2.846-4.368-5.615-8.788-8.304-13.254c-0.299,6.332-0.521,12.664-0.665,19.001c-1.753-0.04-3.506-0.04-5.26,0
	c0.254-2.482,0.436-4.971,0.543-7.463c0.191-3.823,0.365-7.669,0.521-11.494c0.081-2.125,0.122-4.251,0.122-6.378
	c2.299,0.056,4.599,0.056,6.898,0c2.714,4.601,5.504,9.156,8.37,13.664c1.153,1.861,2.283,3.736,3.389,5.625l0.687-17.229
	c0.012-0.687,0.016-1.373,0.011-2.06c1.75,0.042,3.499,0.042,5.249,0L985.653,332.168"/>
<path fill-rule="evenodd" clip-rule="evenodd" fill="none" stroke="#EC008C" stroke-miterlimit="10" d="M1111.031,327.883
	c-0.064,0.833-0.12,1.668-0.167,2.502l-0.741,14.76c-0.067,1.848-0.086,3.699-0.056,5.548c-1.956-0.06-3.913-0.06-5.868,0
	c0.187-2.164,0.326-4.331,0.42-6.5c0.199-3.646,0.368-7.291,0.51-10.94c0.027-0.991,0.057-1.999,0.089-2.99
	c-1.169,0.724-2.313,1.484-3.433,2.281c0.133-1.617,0.207-3.239,0.222-4.861c0.396-0.237,0.795-0.469,1.195-0.698
	c0.714-0.413,1.412-0.853,2.093-1.318l0.398-0.31c1.845,0.065,3.692,0.065,5.536,0L1111.031,327.883"/>
<path fill-rule="evenodd" clip-rule="evenodd" fill="none" stroke="#EC008C" stroke-miterlimit="10" d="M1007.478,325.292
	c1.061-0.007,2.118,0.123,3.145,0.388c0.569,0.164,1.117,0.398,1.628,0.698c0.654,0.423,1.194,1.001,1.572,1.683
	c0.535,0.961,0.806,2.046,0.786,3.145l-0.055,1.019l-0.188,0.963c-0.455,1.759-1.692,3.212-3.355,3.942
	c-0.399,0.174-0.806,0.333-1.218,0.476c0.664,0.116,1.311,0.313,1.927,0.587c1.56,0.731,2.685,2.155,3.034,3.842
	c0.369,1.645,0.158,3.366-0.599,4.872c-0.611,1.203-1.604,2.168-2.823,2.746c-1.066,0.517-2.227,0.814-3.41,0.875
	c-2.017,0.13-4.037,0.186-6.058,0.167c-2.617-0.03-5.232-0.03-7.851,0c0.412-4.504,0.667-9.021,0.765-13.542
	c0.187-3.927,0.268-7.86,0.243-11.792c3.267,0.054,6.534,0.035,9.8-0.055C1005.706,325.28,1006.592,325.276,1007.478,325.292"/>
<path fill-rule="evenodd" clip-rule="evenodd" fill="none" stroke="#EC008C" stroke-miterlimit="10" d="M999.915,339.487
	l-0.277,7.585h4.817c1.153,0.029,2.297-0.222,3.333-0.731c0.616-0.344,1.094-0.892,1.351-1.55c0.41-0.928,0.48-1.971,0.199-2.945
	c-0.371-1.074-1.265-1.884-2.369-2.148c-0.781-0.176-1.582-0.247-2.381-0.21H999.915"/>
<path fill-rule="evenodd" clip-rule="evenodd" fill="none" stroke="#EC008C" stroke-miterlimit="10" d="M1090.978,339.831
	c-0.076,0.973-0.124,1.948-0.144,2.923c-3.195-0.131-6.395-0.131-9.589,0c0.113-1.248,0.18-2.5,0.199-3.753c3.199,0.1,6.4,0.1,9.6,0
	L1090.978,339.831"/>
<polyline fill-rule="evenodd" clip-rule="evenodd" fill="none" stroke="#EC008C" stroke-miterlimit="10" points="1033.742,332.368 
	1031.052,337.827 1038.16,337.827 1035.237,329.245 1033.742,332.368 "/>
<path fill-rule="evenodd" clip-rule="evenodd" fill="none" stroke="#EC008C" stroke-miterlimit="10" d="M1000.336,328.891
	l-0.244,6.976c1.525,0.012,3.049,0.005,4.573-0.022c1.055,0.013,2.095-0.254,3.012-0.775c0.596-0.435,1.044-1.041,1.284-1.738
	c0.237-0.656,0.294-1.363,0.167-2.048c-0.062-0.326-0.173-0.64-0.333-0.93c-0.421-0.669-1.096-1.137-1.871-1.295
	c-0.705-0.128-1.421-0.184-2.137-0.167H1000.336z"/>
<path fill-rule="evenodd" clip-rule="evenodd" fill="none" stroke="#ED1C24" stroke-miterlimit="10" d="M885.732,199.195
	c0.398,0.075,0.775,0.233,1.107,0.465l0.421,0.388c0.27,0.333,0.476,0.711,0.609,1.118c0.281,0.98,0.281,2.02,0,3
	c-0.273,1.026-1.115,1.803-2.159,1.993c-0.429,0.074-0.867,0.074-1.296,0c-0.495-0.09-0.955-0.316-1.329-0.653
	c-0.221-0.209-0.407-0.452-0.553-0.72c-0.211-0.413-0.35-0.858-0.41-1.317c-0.116-0.77-0.063-1.556,0.155-2.303
	c0.128-0.409,0.335-0.789,0.608-1.118c0.257-0.299,0.579-0.534,0.941-0.687c0.393-0.164,0.815-0.243,1.24-0.233L885.732,199.195"/>
<path fill-rule="evenodd" clip-rule="evenodd" fill="none" stroke="#ED1C24" stroke-miterlimit="10" d="M892.1,199.162
	c0.625,0.055,1.23,0.248,1.771,0.565v1.085h-0.077c-0.629-0.672-1.549-0.991-2.458-0.853c-0.582,0.132-1.074,0.518-1.34,1.052
	c-0.246,0.522-0.363,1.096-0.344,1.672c-0.028,0.576,0.098,1.15,0.365,1.661c0.145,0.262,0.336,0.495,0.565,0.687
	c0.556,0.385,1.259,0.491,1.904,0.288c0.497-0.149,0.95-0.419,1.317-0.786h0.066v1.074c-0.829,0.491-1.804,0.679-2.757,0.531
	c-0.298-0.052-0.585-0.148-0.853-0.288c-0.646-0.35-1.125-0.944-1.329-1.649c-0.294-0.982-0.298-2.028-0.011-3.012
	c0.14-0.405,0.354-0.781,0.631-1.107c0.406-0.46,0.957-0.769,1.562-0.875C891.439,199.153,891.771,199.138,892.1,199.162"/>
<polyline fill-rule="evenodd" clip-rule="evenodd" fill="none" stroke="#ED1C24" stroke-miterlimit="10" points="878.68,205.263 
	881.725,205.263 881.725,206.072 877.782,206.072 877.782,199.273 878.68,199.273 878.68,205.263 "/>
<polyline fill-rule="evenodd" clip-rule="evenodd" fill="none" stroke="#ED1C24" stroke-miterlimit="10" points="895.609,202.396 
	898.4,199.273 899.496,199.273 896.684,202.307 899.662,206.072 898.488,206.072 896.009,202.905 895.609,203.359 895.609,206.072 
	894.713,206.072 894.713,199.273 895.609,199.273 895.609,202.396 "/>
<path fill-rule="evenodd" clip-rule="evenodd" fill="none" stroke="#ED1C24" stroke-miterlimit="10" d="M884.614,199.959
	c-0.576,0.116-1.057,0.51-1.284,1.052c-0.432,1.065-0.436,2.254-0.011,3.322c0.189,0.4,0.51,0.724,0.907,0.919
	c0.54,0.238,1.154,0.238,1.694,0c0.398-0.195,0.718-0.519,0.908-0.919c0.222-0.525,0.327-1.091,0.31-1.661
	c0.025-0.575-0.085-1.147-0.32-1.672c-0.304-0.683-0.992-1.112-1.739-1.085L884.614,199.959z"/>
<path fill-rule="evenodd" clip-rule="evenodd" fill="none" stroke="#ED1C24" stroke-miterlimit="10" d="M927.744,203.446
	c-0.05,0.477,0.051,0.957,0.288,1.373c0.202,0.277,0.504,0.464,0.842,0.521c0.505,0.111,1.032,0.011,1.462-0.277
	c0.322-0.305,0.503-0.73,0.498-1.174l0.011-0.42v-4.263h0.908v4.241c0.011,0.411-0.038,0.821-0.145,1.218
	c-0.234,0.788-0.92,1.356-1.738,1.439c-0.544,0.085-1.1,0.047-1.627-0.111c-0.614-0.209-1.086-0.706-1.263-1.329
	c-0.107-0.397-0.156-0.807-0.144-1.218v-4.241h0.907V203.446"/>
<polyline fill-rule="evenodd" clip-rule="evenodd" fill="none" stroke="#ED1C24" stroke-miterlimit="10" points="937.112,204.586 
	937.112,199.205 937.954,199.205 937.954,206.003 936.946,206.003 933.934,200.135 933.934,206.003 933.093,206.003 
	933.093,199.205 934.377,199.205 937.112,204.586 "/>
<polygon fill-rule="evenodd" clip-rule="evenodd" fill="none" stroke="#ED1C24" stroke-miterlimit="10" points="940.268,205.195 
	943.302,205.195 943.302,206.003 939.36,206.003 939.36,199.205 940.268,199.205 "/>
<path fill-rule="evenodd" clip-rule="evenodd" fill="none" stroke="#ED1C24" stroke-miterlimit="10" d="M1260.986,233.447
	c1.227,0.089,2.264,0.94,2.592,2.126l0.177,0.753c0.12,0.811,0.063,1.638-0.166,2.425c-0.215,0.75-0.711,1.389-1.385,1.783
	c-0.996,0.505-2.174,0.501-3.166-0.011c-0.665-0.394-1.152-1.028-1.362-1.771c-0.3-1.035-0.296-2.134,0.011-3.167l0.267-0.642
	c0.153-0.284,0.352-0.542,0.586-0.764C1259.215,233.599,1260.104,233.333,1260.986,233.447"/>
<path fill-rule="evenodd" clip-rule="evenodd" fill="none" stroke="#ED1C24" stroke-miterlimit="10" d="M1254.83,233.613
	c0.46,0.012,0.906,0.158,1.284,0.421c0.408,0.268,0.695,0.685,0.798,1.163c0.065,0.332,0.072,0.673,0.021,1.007
	c-0.147,0.786-0.706,1.433-1.461,1.694c-0.681,0.17-1.383,0.233-2.082,0.188v2.668h-0.952v-7.175h1.805L1254.83,233.613"/>
<polyline fill-rule="evenodd" clip-rule="evenodd" fill="none" stroke="#ED1C24" stroke-miterlimit="10" points="1266.7,239.548 
	1268.129,233.58 1269.104,233.58 1270.554,239.603 1271.993,233.58 1272.923,233.58 1271.118,240.754 1270.044,240.754 
	1268.583,234.797 1267.165,240.754 1266.113,240.754 1264.275,233.58 1265.25,233.58 1266.7,239.548 "/>
<polyline fill-rule="evenodd" clip-rule="evenodd" fill="none" stroke="#ED1C24" stroke-miterlimit="10" points="1278.249,234.432 
	1274.717,234.432 1274.717,236.392 1278.006,236.392 1278.006,237.245 1274.717,237.245 1274.717,239.913 1278.249,239.913 
	1278.249,240.754 1273.754,240.754 1273.754,233.58 1278.249,233.58 1278.249,234.432 "/>
<path fill-rule="evenodd" clip-rule="evenodd" fill="none" stroke="#ED1C24" stroke-miterlimit="10" d="M1281.704,233.602
	c0.598-0.02,1.177,0.213,1.595,0.642c0.205,0.213,0.35,0.477,0.421,0.764c0.118,0.524,0.06,1.073-0.167,1.561
	c-0.275,0.498-0.725,0.876-1.262,1.063l2.547,3.122h-1.229l-2.281-2.846h-1.085v2.846h-0.952v-7.175
	C1280.095,233.555,1280.9,233.563,1281.704,233.602"/>
<path fill-rule="evenodd" clip-rule="evenodd" fill="none" stroke="#ED1C24" stroke-miterlimit="10" d="M1260.146,234.299
	c-0.443,0.086-0.839,0.335-1.107,0.697c-0.31,0.45-0.496,0.973-0.543,1.517c-0.09,0.635-0.056,1.282,0.1,1.905
	c0.117,0.486,0.389,0.922,0.775,1.24c0.358,0.284,0.805,0.433,1.262,0.42c0.796,0.024,1.526-0.436,1.85-1.163
	c0.24-0.551,0.354-1.148,0.332-1.75c-0.002-0.425-0.055-0.849-0.155-1.262c-0.089-0.326-0.235-0.633-0.432-0.908
	c-0.381-0.49-0.975-0.766-1.595-0.742L1260.146,234.299"/>
<path fill-rule="evenodd" clip-rule="evenodd" fill="none" stroke="#ED1C24" stroke-miterlimit="10" d="M1253.391,234.399v2.868
	c0.533,0.04,1.069,0.01,1.595-0.088c0.621-0.176,1.036-0.762,0.996-1.406c0.054-0.646-0.409-1.222-1.052-1.307
	C1254.42,234.396,1253.904,234.374,1253.391,234.399"/>
<path fill-rule="evenodd" clip-rule="evenodd" fill="none" stroke="#ED1C24" stroke-miterlimit="10" d="M1280.242,234.399v2.713
	c0.41,0.015,0.82,0.008,1.229-0.022c0.435,0.002,0.842-0.214,1.085-0.576c0.316-0.524,0.303-1.182-0.033-1.694
	c-0.259-0.259-0.608-0.406-0.975-0.41C1281.113,234.393,1280.678,234.389,1280.242,234.399z"/>
<path fill-rule="evenodd" clip-rule="evenodd" fill="none" stroke="#ED1C24" stroke-miterlimit="10" d="M1220.73,213.27
	c1.254,0.085,2.318,0.957,2.646,2.17c0.229,0.802,0.29,1.643,0.177,2.469c-0.058,0.379-0.157,0.75-0.299,1.107
	c-0.372,0.94-1.207,1.619-2.203,1.793l-0.687,0.066c-1.012,0.041-1.975-0.435-2.558-1.262c-0.193-0.29-0.343-0.607-0.443-0.941
	l-0.177-0.753c-0.074-0.574-0.074-1.154,0-1.728l0.177-0.753c0.14-0.437,0.361-0.842,0.653-1.196
	c0.596-0.664,1.456-1.029,2.348-0.997L1220.73,213.27"/>
<polyline fill-rule="evenodd" clip-rule="evenodd" fill="none" stroke="#ED1C24" stroke-miterlimit="10" points="1229.024,219.194 
	1229.024,213.403 1229.932,213.403 1229.932,220.722 1228.836,220.722 1225.603,214.411 1225.603,220.722 1224.694,220.722 
	1224.694,213.403 1226.079,213.403 1229.024,219.194 "/>
<path fill-rule="evenodd" clip-rule="evenodd" fill="none" stroke="#ED1C24" stroke-miterlimit="10" d="M1219.878,214.134
	c-0.455,0.086-0.859,0.344-1.129,0.72c-0.315,0.458-0.51,0.987-0.565,1.539c-0.081,0.647-0.044,1.304,0.111,1.938
	c0.087,0.34,0.241,0.66,0.454,0.941c0.508,0.62,1.324,0.895,2.104,0.708c0.624-0.133,1.146-0.557,1.406-1.14
	c0.24-0.559,0.354-1.164,0.332-1.772c0.027-0.62-0.09-1.238-0.344-1.805c-0.258-0.573-0.771-0.992-1.384-1.129
	C1220.537,214.075,1220.204,214.075,1219.878,214.134z"/>
<path fill-rule="evenodd" clip-rule="evenodd" fill="none" stroke="#ED1C24" stroke-miterlimit="10" d="M1218.87,278.518
	c1.253,0.09,2.313,0.96,2.646,2.17c0.309,1.055,0.309,2.177,0,3.233c-0.295,1.103-1.201,1.936-2.325,2.137
	c-0.68,0.134-1.383,0.069-2.026-0.188c-0.818-0.367-1.429-1.083-1.661-1.949l-0.177-0.753c-0.074-0.573-0.074-1.154,0-1.727
	l0.177-0.753c0.14-0.437,0.361-0.843,0.653-1.196c0.596-0.665,1.456-1.03,2.348-0.997L1218.87,278.518"/>
<polyline fill-rule="evenodd" clip-rule="evenodd" fill="none" stroke="#ED1C24" stroke-miterlimit="10" points="1227.208,279.515 
	1223.809,279.515 1223.809,281.585 1227.075,281.585 1227.075,282.449 1223.809,282.449 1223.809,285.97 1222.834,285.97 
	1222.834,278.651 1227.208,278.651 1227.208,279.515 "/>
<polyline fill-rule="evenodd" clip-rule="evenodd" fill="none" stroke="#ED1C24" stroke-miterlimit="10" points="1232.445,279.515 
	1229.035,279.515 1229.035,281.585 1232.302,281.585 1232.302,282.449 1229.035,282.449 1229.035,285.97 1228.071,285.97 
	1228.071,278.651 1232.445,278.651 1232.445,279.515 "/>
<path fill-rule="evenodd" clip-rule="evenodd" fill="none" stroke="#ED1C24" stroke-miterlimit="10" d="M1218.018,279.382
	c-0.455,0.086-0.859,0.344-1.129,0.72c-0.326,0.451-0.522,0.984-0.565,1.539c-0.081,0.647-0.044,1.304,0.111,1.938
	c0.087,0.341,0.242,0.661,0.454,0.941c0.508,0.62,1.324,0.895,2.104,0.708c0.624-0.134,1.146-0.558,1.406-1.141
	c0.24-0.559,0.354-1.164,0.332-1.771c0.028-0.62-0.09-1.238-0.343-1.805c-0.198-0.426-0.533-0.773-0.953-0.985
	C1218.987,279.338,1218.494,279.289,1218.018,279.382z"/>
<line fill-rule="evenodd" clip-rule="evenodd" fill="none" stroke="#DBCB00" stroke-miterlimit="10" x1="662.053" y1="216.395" x2="657.238" y2="223.983"/>
<line fill-rule="evenodd" clip-rule="evenodd" fill="none" stroke="#DBCB00" stroke-miterlimit="10" x1="499.479" y1="209.313" x2="657.24" y2="209.313"/>
<line fill-rule="evenodd" clip-rule="evenodd" fill="none" stroke="#DBCB00" stroke-miterlimit="10" x1="499.473" y1="209.312" x2="494.966" y2="216.395"/>
<line fill-rule="evenodd" clip-rule="evenodd" fill="none" stroke="#DBCB00" stroke-miterlimit="10" x1="494.966" y1="216.395" x2="499.473" y2="223.984"/>
<line fill-rule="evenodd" clip-rule="evenodd" fill="none" stroke="#DBCB00" stroke-miterlimit="10" x1="657.236" y1="223.983" x2="499.475" y2="223.983"/>
<line fill-rule="evenodd" clip-rule="evenodd" fill="none" stroke="#DBCB00" stroke-miterlimit="10" x1="657.238" y1="209.311" x2="662.053" y2="216.395"/>
<line fill-rule="evenodd" clip-rule="evenodd" fill="none" stroke="#DBCB00" stroke-miterlimit="10" x1="482.761" y1="216.395" x2="477.946" y2="223.983"/>
<line fill-rule="evenodd" clip-rule="evenodd" fill="none" stroke="#DBCB00" stroke-miterlimit="10" x1="320.188" y1="209.313" x2="477.949" y2="209.313"/>
<line fill-rule="evenodd" clip-rule="evenodd" fill="none" stroke="#DBCB00" stroke-miterlimit="10" x1="320.181" y1="209.312" x2="315.674" y2="216.395"/>
<line fill-rule="evenodd" clip-rule="evenodd" fill="none" stroke="#DBCB00" stroke-miterlimit="10" x1="315.674" y1="216.395" x2="320.181" y2="223.984"/>
<line fill-rule="evenodd" clip-rule="evenodd" fill="none" stroke="#DBCB00" stroke-miterlimit="10" x1="477.944" y1="223.983" x2="320.183" y2="223.983"/>
<line fill-rule="evenodd" clip-rule="evenodd" fill="none" stroke="#DBCB00" stroke-miterlimit="10" x1="477.946" y1="209.311" x2="482.761" y2="216.395"/>
<line fill-rule="evenodd" clip-rule="evenodd" fill="none" stroke="#DBCB00" stroke-miterlimit="10" x1="295.562" y1="209.311" x2="300.377" y2="216.395"/>
<line fill-rule="evenodd" clip-rule="evenodd" fill="none" stroke="#DBCB00" stroke-miterlimit="10" x1="295.561" y1="223.983" x2="193.64" y2="223.983"/>
<line fill-rule="evenodd" clip-rule="evenodd" fill="none" stroke="#DBCB00" stroke-miterlimit="10" x1="300.377" y1="216.395" x2="295.562" y2="223.983"/>
<line fill-rule="evenodd" clip-rule="evenodd" fill="none" stroke="#DBCB00" stroke-miterlimit="10" x1="189.132" y1="216.395" x2="193.639" y2="223.983"/>
<line fill-rule="evenodd" clip-rule="evenodd" fill="none" stroke="#DBCB00" stroke-miterlimit="10" x1="193.641" y1="209.313" x2="295.563" y2="209.313"/>
<line fill-rule="evenodd" clip-rule="evenodd" fill="none" stroke="#DBCB00" stroke-miterlimit="10" x1="193.639" y1="209.312" x2="189.132" y2="216.395"/>
<line fill-rule="evenodd" clip-rule="evenodd" fill="none" stroke="#DBCB00" stroke-miterlimit="10" x1="193.644" y1="229.552" x2="189.136" y2="236.636"/>
<line fill-rule="evenodd" clip-rule="evenodd" fill="none" stroke="#DBCB00" stroke-miterlimit="10" x1="424.251" y1="236.635" x2="419.436" y2="244.224"/>
<line fill-rule="evenodd" clip-rule="evenodd" fill="none" stroke="#DBCB00" stroke-miterlimit="10" x1="193.643" y1="229.556" x2="419.441" y2="229.556"/>
<line fill-rule="evenodd" clip-rule="evenodd" fill="none" stroke="#DBCB00" stroke-miterlimit="10" x1="419.436" y1="229.552" x2="424.251" y2="236.635"/>
<line fill-rule="evenodd" clip-rule="evenodd" fill="none" stroke="#DBCB00" stroke-miterlimit="10" x1="419.435" y1="244.226" x2="193.639" y2="244.226"/>
<line fill-rule="evenodd" clip-rule="evenodd" fill="none" stroke="#DBCB00" stroke-miterlimit="10" x1="189.136" y1="236.636" x2="193.644" y2="244.224"/>
<line fill-rule="evenodd" clip-rule="evenodd" fill="none" stroke="#DBCB00" stroke-miterlimit="10" x1="432.861" y1="229.552" x2="428.353" y2="236.636"/>
<line fill-rule="evenodd" clip-rule="evenodd" fill="none" stroke="#DBCB00" stroke-miterlimit="10" x1="662.051" y1="236.635" x2="657.236" y2="244.224"/>
<line fill-rule="evenodd" clip-rule="evenodd" fill="none" stroke="#DBCB00" stroke-miterlimit="10" x1="432.86" y1="229.553" x2="657.239" y2="229.553"/>
<line fill-rule="evenodd" clip-rule="evenodd" fill="none" stroke="#DBCB00" stroke-miterlimit="10" x1="657.236" y1="229.552" x2="662.051" y2="236.635"/>
<line fill-rule="evenodd" clip-rule="evenodd" fill="none" stroke="#DBCB00" stroke-miterlimit="10" x1="657.237" y1="244.226" x2="432.858" y2="244.226"/>
<line fill-rule="evenodd" clip-rule="evenodd" fill="none" stroke="#DBCB00" stroke-miterlimit="10" x1="428.353" y1="236.636" x2="432.861" y2="244.224"/>
</svg>
