;Holesize 1 =   30.0 PLATED MILS
;Holesize 2 =   55.0 PLATED MILS
;Holesize 3 =  125.0 PLATED MILS
M48
INCH,00.0000
T01C0.030
T02C0.055
T03C0.125
%
G05
G90
T01
X008500Y038000
X007500Y038000
X006500Y038000
X005500Y038000
X004500Y038000
X003500Y038000
X002500Y038000
X002500Y035000
X003500Y035000
X004500Y035000
X005500Y035000
X006500Y035000
X007500Y035000
X008500Y035000
X017500Y032000
X016500Y032000
X015500Y032000
X014500Y032000
X013500Y032000
X012500Y032000
X011500Y032000
X011500Y029000
X012500Y029000
X013500Y029000
X014500Y029000
X015500Y029000
X016500Y029000
X017500Y029000
X030500Y031000
X030500Y032000
X030500Y033000
X030500Y034000
X030500Y035000
X030500Y036000
X030500Y037000
X027500Y037000
X027500Y036000
X027500Y035000
X027500Y034000
X027500Y033000
X027500Y032000
X027500Y031000
X024500Y031000
X024500Y032000
X024500Y033000
X024500Y034000
X024500Y035000
X024500Y036000
X024500Y037000
X021500Y037000
X021500Y036000
X021500Y035000
X021500Y034000
X021500Y033000
X021500Y032000
X021500Y031000
X017500Y038000
X016500Y038000
X015500Y038000
X014500Y038000
X013500Y038000
X012500Y038000
X011500Y038000
X011500Y035000
X012500Y035000
X013500Y035000
X014500Y035000
X015500Y035000
X016500Y035000
X017500Y035000
X032500Y040000
X026500Y040000
X026500Y039000
X028500Y042000
X011500Y033000
X017500Y033000
X011500Y034000
X017500Y034000
X002500Y028000
X008500Y028000
X010500Y013000
X010500Y014000
X010500Y015000
X010500Y016000
X010500Y017000
X010500Y018000
X010500Y019000
X007500Y019000
X007500Y018000
X007500Y017000
X007500Y016000
X007500Y015000
X007500Y014000
X007500Y013000
X015500Y005000
X015500Y006000
X015500Y007000
X015500Y008000
X015500Y009000
X015500Y010000
X015500Y011000
X012500Y011000
X012500Y010000
X012500Y009000
X012500Y008000
X012500Y007000
X012500Y006000
X012500Y005000
X061500Y020000
X060500Y020000
X059500Y020000
X058500Y020000
X057500Y020000
X056500Y020000
X055500Y020000
X055500Y017000
X056500Y017000
X057500Y017000
X058500Y017000
X059500Y017000
X060500Y017000
X061500Y017000
X017500Y011000
X017500Y005000
X010500Y005000
X010500Y006000
X010500Y007000
X010500Y008000
X010500Y009000
X010500Y010000
X010500Y011000
X007500Y011000
X007500Y010000
X007500Y009000
X007500Y008000
X007500Y007000
X007500Y006000
X007500Y005000
X005500Y005000
X005500Y006000
X005500Y007000
X005500Y008000
X005500Y009000
X005500Y010000
X005500Y011000
X002500Y011000
X002500Y010000
X002500Y009000
X002500Y008000
X002500Y007000
X002500Y006000
X002500Y005000
X015500Y013000
X015500Y014000
X015500Y015000
X015500Y016000
X015500Y017000
X015500Y018000
X015500Y019000
X012500Y019000
X012500Y018000
X012500Y017000
X012500Y016000
X012500Y015000
X012500Y014000
X012500Y013000
X008500Y033000
X007500Y033000
X006500Y033000
X005500Y033000
X004500Y033000
X003500Y033000
X002500Y033000
X002500Y030000
X003500Y030000
X004500Y030000
X005500Y030000
X006500Y030000
X007500Y030000
X008500Y030000
X077500Y026000
X076500Y026000
X075500Y026000
X074500Y026000
X073500Y026000
X072500Y026000
X071500Y026000
X071500Y023000
X072500Y023000
X073500Y023000
X074500Y023000
X075500Y023000
X076500Y023000
X077500Y023000
X069500Y026000
X068500Y026000
X067500Y026000
X066500Y026000
X065500Y026000
X064500Y026000
X063500Y026000
X063500Y023000
X064500Y023000
X065500Y023000
X066500Y023000
X067500Y023000
X068500Y023000
X069500Y023000
X085500Y026000
X084500Y026000
X083500Y026000
X082500Y026000
X081500Y026000
X080500Y026000
X079500Y026000
X079500Y023000
X080500Y023000
X081500Y023000
X082500Y023000
X083500Y023000
X084500Y023000
X085500Y023000
X061500Y027000
X060500Y027000
X059500Y027000
X058500Y027000
X057500Y027000
X056500Y027000
X055500Y027000
X055500Y024000
X056500Y024000
X057500Y024000
X058500Y024000
X059500Y024000
X060500Y024000
X061500Y024000
X045500Y040000
X044500Y040000
X043500Y040000
X042500Y040000
X041500Y040000
X040500Y040000
X039500Y040000
X039500Y037000
X040500Y037000
X041500Y037000
X042500Y037000
X043500Y037000
X044500Y037000
X045500Y037000
X038500Y073000
X038500Y072000
X038500Y071000
X038500Y070000
X038500Y069000
X038500Y068000
X038500Y067000
X041500Y067000
X041500Y068000
X041500Y069000
X041500Y070000
X041500Y071000
X041500Y072000
X041500Y073000
X052500Y028000
X051500Y028000
X050500Y028000
X049500Y028000
X048500Y028000
X047500Y028000
X046500Y028000
X046500Y025000
X047500Y025000
X048500Y025000
X049500Y025000
X050500Y025000
X051500Y025000
X052500Y025000
X050500Y041000
X044500Y041000
X070500Y018000
X070500Y012000
X069500Y018000
X069500Y012000
X065500Y018000
X065500Y012000
X068500Y018000
X068500Y012000
X067500Y018000
X067500Y012000
X071500Y018000
X071500Y012000
X064500Y018000
X064500Y012000
X070500Y011000
X069500Y011000
X068500Y011000
X067500Y011000
X064500Y011000
X065500Y011000
X066500Y012000
X066500Y018000
X071500Y009000
X070500Y009000
X069500Y009000
X068500Y009000
X067500Y009000
X066500Y009000
X065500Y009000
X065500Y006000
X066500Y006000
X067500Y006000
X068500Y006000
X069500Y006000
X070500Y006000
X071500Y006000
X061500Y014000
X060500Y014000
X059500Y014000
X058500Y014000
X057500Y014000
X056500Y014000
X055500Y014000
X055500Y011000
X056500Y011000
X057500Y011000
X058500Y011000
X059500Y011000
X060500Y011000
X061500Y011000
X047500Y045000
X046500Y045000
X045500Y045000
X044500Y045000
X043500Y045000
X042500Y045000
X041500Y045000
X041500Y042000
X042500Y042000
X043500Y042000
X044500Y042000
X045500Y042000
X046500Y042000
X047500Y042000
X026500Y014000
X026500Y015000
X026500Y016000
X026500Y017000
X026500Y018000
X026500Y019000
X026500Y020000
X023500Y020000
X023500Y019000
X023500Y018000
X023500Y017000
X023500Y016000
X023500Y015000
X023500Y014000
X021500Y014000
X021500Y015000
X021500Y016000
X021500Y017000
X021500Y018000
X021500Y019000
X021500Y020000
X018500Y020000
X018500Y019000
X018500Y018000
X018500Y017000
X018500Y016000
X018500Y015000
X018500Y014000
X026500Y012000
X025500Y012000
X024500Y012000
X023500Y012000
X022500Y012000
X021500Y012000
X020500Y012000
X019500Y012000
X024500Y005000
X024500Y011000
X023500Y005000
X023500Y011000
X022500Y005000
X022500Y011000
X021500Y005000
X021500Y011000
X020500Y005000
X020500Y011000
X019500Y005000
X019500Y011000
X025500Y005000
X025500Y011000
X026500Y005000
X026500Y011000
X018500Y005000
X018500Y011000
X060500Y008000
X059500Y008000
X058500Y008000
X057500Y008000
X056500Y008000
X055500Y008000
X054500Y008000
X054500Y005000
X055500Y005000
X056500Y005000
X057500Y005000
X058500Y005000
X059500Y005000
X060500Y005000
X051500Y008000
X050500Y008000
X049500Y008000
X048500Y008000
X047500Y008000
X046500Y008000
X045500Y008000
X045500Y005000
X046500Y005000
X047500Y005000
X048500Y005000
X049500Y005000
X050500Y005000
X051500Y005000
X051500Y014000
X050500Y014000
X049500Y014000
X048500Y014000
X047500Y014000
X046500Y014000
X045500Y014000
X045500Y011000
X046500Y011000
X047500Y011000
X048500Y011000
X049500Y011000
X050500Y011000
X051500Y011000
X039500Y007000
X039500Y008000
X039500Y009000
X039500Y010000
X039500Y011000
X039500Y012000
X039500Y013000
X036500Y013000
X036500Y012000
X036500Y011000
X036500Y010000
X036500Y009000
X036500Y008000
X036500Y007000
X041500Y005000
X040500Y005000
X039500Y005000
X038500Y005000
X051500Y020000
X050500Y020000
X049500Y020000
X048500Y020000
X047500Y020000
X046500Y020000
X045500Y020000
X045500Y017000
X046500Y017000
X047500Y017000
X048500Y017000
X049500Y017000
X050500Y017000
X051500Y017000
X042500Y015000
X042500Y016000
X042500Y017000
X042500Y018000
X042500Y019000
X042500Y020000
X042500Y021000
X039500Y021000
X039500Y020000
X039500Y019000
X039500Y018000
X039500Y017000
X039500Y016000
X039500Y015000
X036500Y015000
X036500Y016000
X036500Y017000
X036500Y018000
X036500Y019000
X036500Y020000
X036500Y021000
X033500Y021000
X033500Y020000
X033500Y019000
X033500Y018000
X033500Y017000
X033500Y016000
X033500Y015000
X031500Y015000
X031500Y016000
X031500Y017000
X031500Y018000
X031500Y019000
X031500Y020000
X031500Y021000
X028500Y021000
X028500Y020000
X028500Y019000
X028500Y018000
X028500Y017000
X028500Y016000
X028500Y015000
X031500Y007000
X031500Y008000
X031500Y009000
X031500Y010000
X031500Y011000
X031500Y012000
X031500Y013000
X028500Y013000
X028500Y012000
X028500Y011000
X028500Y010000
X028500Y009000
X028500Y008000
X028500Y007000
X036500Y005000
X035500Y005000
X034500Y005000
X033500Y005000
X031500Y005000
X030500Y005000
X029500Y005000
X028500Y005000
X079500Y009000
X078500Y009000
X077500Y009000
X076500Y009000
X075500Y009000
X074500Y009000
X073500Y009000
X073500Y006000
X074500Y006000
X075500Y006000
X076500Y006000
X077500Y006000
X078500Y006000
X079500Y006000
X087500Y014000
X086500Y014000
X085500Y014000
X084500Y014000
X083500Y014000
X082500Y014000
X081500Y014000
X081500Y011000
X082500Y011000
X083500Y011000
X084500Y011000
X085500Y011000
X086500Y011000
X087500Y011000
X079500Y015000
X078500Y015000
X077500Y015000
X076500Y015000
X075500Y015000
X074500Y015000
X073500Y015000
X073500Y012000
X074500Y012000
X075500Y012000
X076500Y012000
X077500Y012000
X078500Y012000
X079500Y012000
X087500Y008000
X086500Y008000
X085500Y008000
X084500Y008000
X083500Y008000
X082500Y008000
X081500Y008000
X081500Y005000
X082500Y005000
X083500Y005000
X084500Y005000
X085500Y005000
X086500Y005000
X087500Y005000
X104500Y005000
X104500Y006000
X104500Y007000
X104500Y008000
X104500Y009000
X104500Y010000
X104500Y011000
X104500Y012000
X101500Y012000
X101500Y011000
X101500Y010000
X101500Y009000
X101500Y008000
X101500Y007000
X101500Y006000
X101500Y005000
X111500Y005000
X111500Y006000
X111500Y007000
X111500Y008000
X111500Y009000
X111500Y010000
X111500Y011000
X111500Y012000
X108500Y012000
X108500Y011000
X108500Y010000
X108500Y009000
X108500Y008000
X108500Y007000
X108500Y006000
X108500Y005000
X118500Y005000
X118500Y006000
X118500Y007000
X118500Y008000
X118500Y009000
X118500Y010000
X118500Y011000
X118500Y012000
X115500Y012000
X115500Y011000
X115500Y010000
X115500Y009000
X115500Y008000
X115500Y007000
X115500Y006000
X115500Y005000
X125500Y005000
X125500Y006000
X125500Y007000
X125500Y008000
X125500Y009000
X125500Y010000
X125500Y011000
X125500Y012000
X122500Y012000
X122500Y011000
X122500Y010000
X122500Y009000
X122500Y008000
X122500Y007000
X122500Y006000
X122500Y005000
X136500Y006000
X136500Y007000
X136500Y008000
X136500Y009000
X136500Y010000
X136500Y011000
X136500Y012000
X133500Y012000
X133500Y011000
X133500Y010000
X133500Y009000
X133500Y008000
X133500Y007000
X133500Y006000
X157500Y006000
X157500Y012000
X131500Y020000
X132500Y020000
X133500Y020000
X134500Y020000
X135500Y020000
X136500Y020000
X137500Y020000
X137500Y023000
X136500Y023000
X135500Y023000
X134500Y023000
X133500Y023000
X132500Y023000
X131500Y023000
X131500Y043000
X132500Y043000
X133500Y043000
X134500Y043000
X135500Y043000
X136500Y043000
X137500Y043000
X137500Y046000
X136500Y046000
X135500Y046000
X134500Y046000
X133500Y046000
X132500Y046000
X131500Y046000
X143500Y025000
X144500Y025000
X145500Y025000
X146500Y025000
X147500Y025000
X148500Y025000
X149500Y025000
X149500Y028000
X148500Y028000
X147500Y028000
X146500Y028000
X145500Y028000
X144500Y028000
X143500Y028000
X143500Y043000
X144500Y043000
X145500Y043000
X146500Y043000
X147500Y043000
X148500Y043000
X149500Y043000
X149500Y046000
X148500Y046000
X147500Y046000
X146500Y046000
X145500Y046000
X144500Y046000
X143500Y046000
X131500Y026000
X132500Y026000
X133500Y026000
X134500Y026000
X135500Y026000
X136500Y026000
X137500Y026000
X137500Y029000
X136500Y029000
X135500Y029000
X134500Y029000
X133500Y029000
X132500Y029000
X131500Y029000
X143500Y020000
X144500Y020000
X145500Y020000
X146500Y020000
X147500Y020000
X148500Y020000
X149500Y020000
X149500Y023000
X148500Y023000
X147500Y023000
X146500Y023000
X145500Y023000
X144500Y023000
X143500Y023000
X143500Y031000
X144500Y031000
X145500Y031000
X146500Y031000
X147500Y031000
X148500Y031000
X149500Y031000
X149500Y034000
X148500Y034000
X147500Y034000
X146500Y034000
X145500Y034000
X144500Y034000
X143500Y034000
X131500Y032000
X132500Y032000
X133500Y032000
X134500Y032000
X135500Y032000
X136500Y032000
X137500Y032000
X137500Y035000
X136500Y035000
X135500Y035000
X134500Y035000
X133500Y035000
X132500Y035000
X131500Y035000
X143500Y037000
X144500Y037000
X145500Y037000
X146500Y037000
X147500Y037000
X148500Y037000
X149500Y037000
X149500Y040000
X148500Y040000
X147500Y040000
X146500Y040000
X145500Y040000
X144500Y040000
X143500Y040000
X143500Y048000
X144500Y048000
X145500Y048000
X146500Y048000
X147500Y048000
X148500Y048000
X149500Y048000
X149500Y051000
X148500Y051000
X147500Y051000
X146500Y051000
X145500Y051000
X144500Y051000
X143500Y051000
X156500Y006000
X156500Y007000
X156500Y008000
X156500Y009000
X156500Y010000
X156500Y011000
X156500Y012000
X153500Y012000
X153500Y011000
X153500Y010000
X153500Y009000
X153500Y008000
X153500Y007000
X153500Y006000
X150500Y006000
X150500Y007000
X150500Y008000
X150500Y009000
X150500Y010000
X150500Y011000
X150500Y012000
X147500Y012000
X147500Y011000
X147500Y010000
X147500Y009000
X147500Y008000
X147500Y007000
X147500Y006000
X144500Y006000
X144500Y007000
X144500Y008000
X144500Y009000
X144500Y010000
X144500Y011000
X144500Y012000
X141500Y012000
X141500Y011000
X141500Y010000
X141500Y009000
X141500Y008000
X141500Y007000
X141500Y006000
X131500Y038000
X132500Y038000
X133500Y038000
X134500Y038000
X135500Y038000
X136500Y038000
X137500Y038000
X137500Y041000
X136500Y041000
X135500Y041000
X134500Y041000
X133500Y041000
X132500Y041000
X131500Y041000
X143500Y053000
X144500Y053000
X145500Y053000
X146500Y053000
X147500Y053000
X148500Y053000
X149500Y053000
X149500Y056000
X148500Y056000
X147500Y056000
X146500Y056000
X145500Y056000
X144500Y056000
X143500Y056000
X146500Y060000
X147500Y060000
X148500Y060000
X149500Y060000
X150500Y060000
X151500Y060000
X152500Y060000
X152500Y063000
X151500Y063000
X150500Y063000
X149500Y063000
X148500Y063000
X147500Y063000
X146500Y063000
X123500Y069000
X123500Y070000
X123500Y071000
X123500Y072000
X123500Y073000
X123500Y074000
X123500Y075000
X120500Y075000
X120500Y074000
X120500Y073000
X120500Y072000
X120500Y071000
X120500Y070000
X120500Y069000
X126500Y054000
X125500Y054000
X124500Y054000
X123500Y054000
X122500Y054000
X121500Y054000
X120500Y054000
X120500Y051000
X121500Y051000
X122500Y051000
X123500Y051000
X124500Y051000
X125500Y051000
X126500Y051000
X118500Y069000
X118500Y070000
X118500Y071000
X118500Y072000
X118500Y073000
X118500Y074000
X118500Y075000
X115500Y075000
X115500Y074000
X115500Y073000
X115500Y072000
X115500Y071000
X115500Y070000
X115500Y069000
X130500Y065000
X131500Y065000
X132500Y065000
X133500Y065000
X134500Y065000
X135500Y065000
X136500Y065000
X136500Y068000
X135500Y068000
X134500Y068000
X133500Y068000
X132500Y068000
X131500Y068000
X130500Y068000
X131500Y058000
X132500Y058000
X133500Y058000
X134500Y058000
X135500Y058000
X136500Y058000
X137500Y058000
X137500Y061000
X136500Y061000
X135500Y061000
X134500Y061000
X133500Y061000
X132500Y061000
X131500Y061000
X117500Y058000
X117500Y059000
X117500Y060000
X117500Y061000
X117500Y062000
X117500Y063000
X117500Y064000
X114500Y064000
X114500Y063000
X114500Y062000
X114500Y061000
X114500Y060000
X114500Y059000
X114500Y058000
X113500Y069000
X113500Y070000
X113500Y071000
X113500Y072000
X113500Y073000
X113500Y074000
X113500Y075000
X110500Y075000
X110500Y074000
X110500Y073000
X110500Y072000
X110500Y071000
X110500Y070000
X110500Y069000
X131500Y051000
X132500Y051000
X133500Y051000
X134500Y051000
X135500Y051000
X136500Y051000
X137500Y051000
X137500Y054000
X136500Y054000
X135500Y054000
X134500Y054000
X133500Y054000
X132500Y054000
X131500Y054000
X148500Y073000
X149500Y073000
X150500Y073000
X151500Y073000
X152500Y073000
X153500Y073000
X154500Y073000
X154500Y076000
X153500Y076000
X152500Y076000
X151500Y076000
X150500Y076000
X149500Y076000
X148500Y076000
X148500Y066000
X149500Y066000
X150500Y066000
X151500Y066000
X152500Y066000
X153500Y066000
X154500Y066000
X154500Y069000
X153500Y069000
X152500Y069000
X151500Y069000
X150500Y069000
X149500Y069000
X148500Y069000
X106500Y058000
X106500Y059000
X106500Y060000
X106500Y061000
X106500Y062000
X106500Y063000
X106500Y064000
X103500Y064000
X103500Y063000
X103500Y062000
X103500Y061000
X103500Y060000
X103500Y059000
X103500Y058000
X061500Y087000
X060500Y087000
X059500Y087000
X058500Y087000
X057500Y087000
X056500Y087000
X055500Y087000
X055500Y084000
X056500Y084000
X057500Y084000
X058500Y084000
X059500Y084000
X060500Y084000
X061500Y084000
X061500Y082000
X060500Y082000
X059500Y082000
X058500Y082000
X057500Y082000
X056500Y082000
X055500Y082000
X055500Y079000
X056500Y079000
X057500Y079000
X058500Y079000
X059500Y079000
X060500Y079000
X061500Y079000
X125500Y043000
X124500Y043000
X123500Y043000
X122500Y043000
X121500Y043000
X120500Y043000
X119500Y043000
X119500Y040000
X120500Y040000
X121500Y040000
X122500Y040000
X123500Y040000
X124500Y040000
X125500Y040000
X072500Y086000
X071500Y086000
X070500Y086000
X069500Y086000
X068500Y086000
X067500Y086000
X066500Y086000
X066500Y083000
X067500Y083000
X068500Y083000
X069500Y083000
X070500Y083000
X071500Y083000
X072500Y083000
X080500Y086000
X079500Y086000
X078500Y086000
X077500Y086000
X076500Y086000
X075500Y086000
X074500Y086000
X074500Y083000
X075500Y083000
X076500Y083000
X077500Y083000
X078500Y083000
X079500Y083000
X080500Y083000
X089500Y086000
X088500Y086000
X087500Y086000
X086500Y086000
X085500Y086000
X084500Y086000
X083500Y086000
X083500Y083000
X084500Y083000
X085500Y083000
X086500Y083000
X087500Y083000
X088500Y083000
X089500Y083000
X106500Y086000
X105500Y086000
X104500Y086000
X103500Y086000
X102500Y086000
X101500Y086000
X100500Y086000
X100500Y083000
X101500Y083000
X102500Y083000
X103500Y083000
X104500Y083000
X105500Y083000
X106500Y083000
X117500Y086000
X116500Y086000
X115500Y086000
X114500Y086000
X113500Y086000
X112500Y086000
X111500Y086000
X111500Y083000
X112500Y083000
X113500Y083000
X114500Y083000
X115500Y083000
X116500Y083000
X117500Y083000
X128500Y086000
X127500Y086000
X126500Y086000
X125500Y086000
X124500Y086000
X123500Y086000
X122500Y086000
X122500Y083000
X123500Y083000
X124500Y083000
X125500Y083000
X126500Y083000
X127500Y083000
X128500Y083000
X133500Y074000
X134500Y074000
X135500Y074000
X136500Y074000
X137500Y074000
X138500Y074000
X139500Y074000
X139500Y077000
X138500Y077000
X137500Y077000
X136500Y077000
X135500Y077000
X134500Y077000
X133500Y077000
X150500Y079000
X151500Y079000
X152500Y079000
X153500Y079000
X154500Y079000
X155500Y079000
X156500Y079000
X156500Y082000
X155500Y082000
X154500Y082000
X153500Y082000
X152500Y082000
X151500Y082000
X150500Y082000
X135500Y083000
X136500Y083000
X137500Y083000
X138500Y083000
X139500Y083000
X140500Y083000
X141500Y083000
X141500Y086000
X140500Y086000
X139500Y086000
X138500Y086000
X137500Y086000
X136500Y086000
X135500Y086000
X150500Y084000
X151500Y084000
X152500Y084000
X153500Y084000
X154500Y084000
X155500Y084000
X156500Y084000
X156500Y087000
X155500Y087000
X154500Y087000
X153500Y087000
X152500Y087000
X151500Y087000
X150500Y087000
X082500Y042000
X081500Y042000
X080500Y042000
X079500Y042000
X078500Y042000
X077500Y042000
X076500Y042000
X076500Y039000
X077500Y039000
X078500Y039000
X079500Y039000
X080500Y039000
X081500Y039000
X082500Y039000
X074500Y042000
X073500Y042000
X072500Y042000
X071500Y042000
X070500Y042000
X069500Y042000
X068500Y042000
X068500Y039000
X069500Y039000
X070500Y039000
X071500Y039000
X072500Y039000
X073500Y039000
X074500Y039000
X058500Y051000
X057500Y051000
X056500Y051000
X055500Y051000
X054500Y051000
X053500Y051000
X052500Y051000
X052500Y048000
X053500Y048000
X054500Y048000
X055500Y048000
X056500Y048000
X057500Y048000
X058500Y048000
X075500Y051000
X074500Y051000
X073500Y051000
X072500Y051000
X071500Y051000
X070500Y051000
X069500Y051000
X069500Y048000
X070500Y048000
X071500Y048000
X072500Y048000
X073500Y048000
X074500Y048000
X075500Y048000
X067500Y051000
X066500Y051000
X065500Y051000
X064500Y051000
X063500Y051000
X062500Y051000
X061500Y051000
X061500Y048000
X062500Y048000
X063500Y048000
X064500Y048000
X065500Y048000
X066500Y048000
X067500Y048000
X083500Y050000
X082500Y050000
X081500Y050000
X080500Y050000
X079500Y050000
X078500Y050000
X077500Y050000
X077500Y047000
X078500Y047000
X079500Y047000
X080500Y047000
X081500Y047000
X082500Y047000
X083500Y047000
X066500Y042000
X065500Y042000
X064500Y042000
X063500Y042000
X062500Y042000
X061500Y042000
X060500Y042000
X060500Y039000
X061500Y039000
X062500Y039000
X063500Y039000
X064500Y039000
X065500Y039000
X066500Y039000
X058500Y042000
X057500Y042000
X056500Y042000
X055500Y042000
X054500Y042000
X053500Y042000
X052500Y042000
X052500Y039000
X053500Y039000
X054500Y039000
X055500Y039000
X056500Y039000
X057500Y039000
X058500Y039000
X026500Y087000
X025500Y087000
X024500Y087000
X023500Y087000
X022500Y087000
X021500Y087000
X020500Y087000
X020500Y084000
X021500Y084000
X022500Y084000
X023500Y084000
X024500Y084000
X025500Y084000
X026500Y084000
X049500Y087000
X048500Y087000
X047500Y087000
X046500Y087000
X045500Y087000
X044500Y087000
X043500Y087000
X043500Y084000
X044500Y084000
X045500Y084000
X046500Y084000
X047500Y084000
X048500Y084000
X049500Y084000
X009500Y087000
X008500Y087000
X007500Y087000
X006500Y087000
X005500Y087000
X004500Y087000
X003500Y087000
X003500Y084000
X004500Y084000
X005500Y084000
X006500Y084000
X007500Y084000
X008500Y084000
X009500Y084000
X009500Y081000
X008500Y081000
X007500Y081000
X006500Y081000
X005500Y081000
X004500Y081000
X003500Y081000
X003500Y078000
X004500Y078000
X005500Y078000
X006500Y078000
X007500Y078000
X008500Y078000
X009500Y078000
X018500Y081000
X017500Y081000
X016500Y081000
X015500Y081000
X014500Y081000
X013500Y081000
X012500Y081000
X012500Y078000
X013500Y078000
X014500Y078000
X015500Y078000
X016500Y078000
X017500Y078000
X018500Y078000
X026500Y081000
X025500Y081000
X024500Y081000
X023500Y081000
X022500Y081000
X021500Y081000
X020500Y081000
X020500Y078000
X021500Y078000
X022500Y078000
X023500Y078000
X024500Y078000
X025500Y078000
X026500Y078000
X005500Y083000
X003500Y083000
X009500Y080000
X010500Y078000
X027500Y066000
X026500Y066000
X025500Y066000
X024500Y066000
X023500Y066000
X022500Y066000
X021500Y066000
X021500Y063000
X022500Y063000
X023500Y063000
X024500Y063000
X025500Y063000
X026500Y063000
X027500Y063000
X009500Y072000
X008500Y072000
X007500Y072000
X006500Y072000
X005500Y072000
X004500Y072000
X003500Y072000
X003500Y069000
X004500Y069000
X005500Y069000
X006500Y069000
X007500Y069000
X008500Y069000
X009500Y069000
X018500Y066000
X017500Y066000
X016500Y066000
X015500Y066000
X014500Y066000
X013500Y066000
X012500Y066000
X012500Y063000
X013500Y063000
X014500Y063000
X015500Y063000
X016500Y063000
X017500Y063000
X018500Y063000
X009500Y066000
X008500Y066000
X007500Y066000
X006500Y066000
X005500Y066000
X004500Y066000
X003500Y066000
X003500Y063000
X004500Y063000
X005500Y063000
X006500Y063000
X007500Y063000
X008500Y063000
X009500Y063000
X027500Y072000
X026500Y072000
X025500Y072000
X024500Y072000
X023500Y072000
X022500Y072000
X021500Y072000
X021500Y069000
X022500Y069000
X023500Y069000
X024500Y069000
X025500Y069000
X026500Y069000
X027500Y069000
X018500Y075000
X012500Y075000
X018500Y087000
X017500Y087000
X016500Y087000
X015500Y087000
X014500Y087000
X013500Y087000
X012500Y087000
X012500Y084000
X013500Y084000
X014500Y084000
X015500Y084000
X016500Y084000
X017500Y084000
X018500Y084000
X018500Y072000
X017500Y072000
X016500Y072000
X015500Y072000
X014500Y072000
X013500Y072000
X012500Y072000
X012500Y069000
X013500Y069000
X014500Y069000
X015500Y069000
X016500Y069000
X017500Y069000
X018500Y069000
X084500Y034000
X083500Y034000
X082500Y034000
X081500Y034000
X080500Y034000
X079500Y034000
X078500Y034000
X078500Y031000
X079500Y031000
X080500Y031000
X081500Y031000
X082500Y031000
X083500Y031000
X084500Y031000
X052500Y034000
X051500Y034000
X050500Y034000
X049500Y034000
X048500Y034000
X047500Y034000
X046500Y034000
X046500Y031000
X047500Y031000
X048500Y031000
X049500Y031000
X050500Y031000
X051500Y031000
X052500Y031000
X076500Y033000
X075500Y033000
X074500Y033000
X073500Y033000
X072500Y033000
X071500Y033000
X070500Y033000
X070500Y030000
X071500Y030000
X072500Y030000
X073500Y030000
X074500Y030000
X075500Y030000
X076500Y030000
X068500Y033000
X067500Y033000
X066500Y033000
X065500Y033000
X064500Y033000
X063500Y033000
X062500Y033000
X062500Y030000
X063500Y030000
X064500Y030000
X065500Y030000
X066500Y030000
X067500Y030000
X068500Y030000
X060500Y033000
X059500Y033000
X058500Y033000
X057500Y033000
X056500Y033000
X055500Y033000
X054500Y033000
X054500Y030000
X055500Y030000
X056500Y030000
X057500Y030000
X058500Y030000
X059500Y030000
X060500Y030000
X040500Y087000
X039500Y087000
X038500Y087000
X037500Y087000
X036500Y087000
X035500Y087000
X034500Y087000
X034500Y084000
X035500Y084000
X036500Y084000
X037500Y084000
X038500Y084000
X039500Y084000
X040500Y084000
X009500Y060000
X003500Y060000
X040500Y081000
X039500Y081000
X038500Y081000
X037500Y081000
X036500Y081000
X035500Y081000
X034500Y081000
X034500Y078000
X035500Y078000
X036500Y078000
X037500Y078000
X038500Y078000
X039500Y078000
X040500Y078000
X049500Y081000
X048500Y081000
X047500Y081000
X046500Y081000
X045500Y081000
X044500Y081000
X043500Y081000
X043500Y078000
X044500Y078000
X045500Y078000
X046500Y078000
X047500Y078000
X048500Y078000
X049500Y078000
X009500Y059000
X008500Y059000
X007500Y059000
X006500Y059000
X005500Y059000
X004500Y059000
X003500Y059000
X003500Y056000
X004500Y056000
X005500Y056000
X006500Y056000
X007500Y056000
X008500Y056000
X009500Y056000
X075500Y064000
X074500Y064000
X073500Y064000
X072500Y064000
X071500Y064000
X070500Y064000
X069500Y064000
X069500Y061000
X070500Y061000
X071500Y061000
X072500Y061000
X073500Y061000
X074500Y061000
X075500Y061000
X075500Y058000
X074500Y058000
X073500Y058000
X072500Y058000
X071500Y058000
X070500Y058000
X069500Y058000
X069500Y055000
X070500Y055000
X071500Y055000
X072500Y055000
X073500Y055000
X074500Y055000
X075500Y055000
X084500Y063000
X083500Y063000
X082500Y063000
X081500Y063000
X080500Y063000
X079500Y063000
X078500Y063000
X078500Y060000
X079500Y060000
X080500Y060000
X081500Y060000
X082500Y060000
X083500Y060000
X084500Y060000
X084500Y058000
X083500Y058000
X082500Y058000
X081500Y058000
X080500Y058000
X079500Y058000
X078500Y058000
X078500Y055000
X079500Y055000
X080500Y055000
X081500Y055000
X082500Y055000
X083500Y055000
X084500Y055000
X057500Y059000
X063500Y059000
X107500Y069000
X107500Y070000
X107500Y071000
X107500Y072000
X107500Y073000
X107500Y074000
X107500Y075000
X104500Y075000
X104500Y074000
X104500Y073000
X104500Y072000
X104500Y071000
X104500Y070000
X104500Y069000
X089500Y074000
X088500Y074000
X087500Y074000
X086500Y074000
X085500Y074000
X084500Y074000
X083500Y074000
X083500Y071000
X084500Y071000
X085500Y071000
X086500Y071000
X087500Y071000
X088500Y071000
X089500Y071000
X080500Y074000
X079500Y074000
X078500Y074000
X077500Y074000
X076500Y074000
X075500Y074000
X074500Y074000
X074500Y071000
X075500Y071000
X076500Y071000
X077500Y071000
X078500Y071000
X079500Y071000
X080500Y071000
X071500Y074000
X070500Y074000
X069500Y074000
X068500Y074000
X067500Y074000
X066500Y074000
X065500Y074000
X065500Y071000
X066500Y071000
X067500Y071000
X068500Y071000
X069500Y071000
X070500Y071000
X071500Y071000
X052500Y073000
X051500Y073000
X050500Y073000
X049500Y073000
X048500Y073000
X047500Y073000
X046500Y073000
X046500Y070000
X047500Y070000
X048500Y070000
X049500Y070000
X050500Y070000
X051500Y070000
X052500Y070000
X061500Y074000
X060500Y074000
X059500Y074000
X058500Y074000
X057500Y074000
X056500Y074000
X055500Y074000
X055500Y071000
X056500Y071000
X057500Y071000
X058500Y071000
X059500Y071000
X060500Y071000
X061500Y071000
X066500Y064000
X065500Y064000
X064500Y064000
X063500Y064000
X062500Y064000
X061500Y064000
X060500Y064000
X060500Y061000
X061500Y061000
X062500Y061000
X063500Y061000
X064500Y061000
X065500Y061000
X066500Y061000
X066500Y058000
X065500Y058000
X064500Y058000
X063500Y058000
X062500Y058000
X061500Y058000
X060500Y058000
X060500Y055000
X061500Y055000
X062500Y055000
X063500Y055000
X064500Y055000
X065500Y055000
X066500Y055000
X040500Y064000
X040500Y063000
X040500Y062000
X040500Y061000
X040500Y060000
X040500Y059000
X040500Y058000
X043500Y058000
X043500Y059000
X043500Y060000
X043500Y061000
X043500Y062000
X043500Y063000
X043500Y064000
X053500Y064000
X052500Y064000
X051500Y064000
X050500Y064000
X049500Y064000
X048500Y064000
X047500Y064000
X047500Y061000
X048500Y061000
X049500Y061000
X050500Y061000
X051500Y061000
X052500Y061000
X053500Y061000
X053500Y059000
X052500Y059000
X051500Y059000
X050500Y059000
X049500Y059000
X048500Y059000
X047500Y059000
X047500Y056000
X048500Y056000
X049500Y056000
X050500Y056000
X051500Y056000
X052500Y056000
X053500Y056000
X009500Y054000
X008500Y054000
X007500Y054000
X006500Y054000
X005500Y054000
X004500Y054000
X003500Y054000
X003500Y051000
X004500Y051000
X005500Y051000
X006500Y051000
X007500Y051000
X008500Y051000
X009500Y051000
X016500Y051000
X016500Y052000
X016500Y053000
X016500Y054000
X013500Y054000
X013500Y053000
X013500Y052000
X013500Y051000
X016500Y056000
X016500Y057000
X016500Y058000
X016500Y059000
X013500Y059000
X013500Y058000
X013500Y057000
X013500Y056000
X024500Y058000
X024500Y057000
X024500Y056000
X024500Y055000
X024500Y054000
X024500Y053000
X024500Y052000
X027500Y052000
X027500Y053000
X027500Y054000
X027500Y055000
X027500Y056000
X027500Y057000
X027500Y058000
X019500Y058000
X019500Y052000
X020500Y058000
X020500Y052000
X022500Y052000
X022500Y058000
X021500Y052000
X021500Y058000
X027500Y027000
X021500Y027000
X027500Y028000
X021500Y028000
X002500Y026000
X008500Y026000
X008500Y027000
X002500Y027000
X009500Y025000
X009500Y026000
X010500Y026000
X007500Y023000
X007500Y025000
X006500Y023000
X006500Y025000
X017500Y027000
X011500Y027000
X017500Y028000
X011500Y028000
X002500Y046000
X002500Y040000
X022500Y046000
X022500Y040000
X006500Y041000
X006500Y040000
X005500Y040000
X020500Y041000
X020500Y040000
X019500Y040000
X011500Y041000
X012500Y041000
X012500Y040000
X012500Y046000
X013500Y046000
X013500Y045000
X008500Y046000
X008500Y040000
X014500Y046000
X014500Y040000
X021500Y040000
X021500Y046000
X003500Y046000
X003500Y040000
X007500Y040000
X007500Y046000
X004500Y040000
X004500Y046000
X017500Y040000
X017500Y046000
X018500Y040000
X018500Y046000
X006500Y045000
X005500Y045000
X005500Y046000
X019500Y045000
X019500Y046000
X020500Y046000
X016500Y040000
X016500Y046000
X010500Y040000
X010500Y046000
X009500Y040000
X009500Y046000
X015500Y040000
X015500Y046000
X008500Y049000
X002500Y049000
X011500Y051500
X011500Y053500
X024500Y047000
X022500Y047000
X002500Y047000
X009500Y003000
X015500Y003000
X038500Y003000
X044500Y003000
X063500Y003000
X063500Y007000
X069500Y003000
X087500Y003000
X086500Y003000
X085500Y003000
X089500Y008000
X090500Y008000
X091500Y008000
X092500Y008000
X157500Y014000
X157500Y015000
X157500Y017000
X150500Y017000
X149500Y017000
X148500Y017000
X142500Y017000
X140500Y017000
X139500Y017000
X138500Y017000
X151500Y031000
X139500Y032000
X152500Y058000
X140500Y058000
X157500Y066000
X157500Y060000
X154500Y063000
X151500Y058000
X157500Y057000
X157500Y069000
X157500Y073000
X156500Y078000
X147500Y089000
X146500Y089000
X129500Y089000
X130500Y089000
X131500Y089000
X126500Y089000
X136500Y087000
X117500Y088000
X119500Y088000
X120500Y088000
X099500Y089000
X090500Y089000
X091500Y089000
X081500Y090000
X062500Y090000
X050500Y090000
X034500Y090000
X027500Y090000
X019500Y090000
X010500Y090000
X028500Y089000
X010500Y084000
X028500Y081000
X028500Y082000
X028500Y083000
X009500Y075000
X007500Y075000
X002500Y048000
X100500Y005000
X099500Y006000
X098500Y006000
X097500Y007000
X096500Y012000
X095500Y012000
X104500Y014000
X094500Y019000
X088500Y005000
X105500Y018000
X108500Y018000
X111500Y017000
X111500Y016000
X118500Y015000
X125500Y016000
X122000Y018000
X123000Y019000
X119500Y019000
X117500Y020000
X110500Y020000
X102500Y022000
X103500Y022000
X112500Y019000
X116500Y022000
X121500Y022000
X104500Y024000
X109500Y024000
X112500Y024000
X112500Y023000
X115500Y024000
X117500Y025000
X120500Y024000
X122500Y026500
X125500Y027500
X126500Y025500
X093500Y024000
X092500Y027000
X092500Y031000
X091500Y033000
X091500Y035000
X094500Y035000
X101500Y030000
X102500Y032000
X103500Y034000
X104500Y029000
X105500Y027000
X109500Y027000
X113500Y027000
X112500Y029000
X111500Y031000
X108500Y029000
X109500Y034000
X106500Y033000
X115500Y034000
X115500Y033000
X118500Y032000
X124500Y032000
X124500Y029000
X125500Y032000
X124500Y035000
X127500Y036000
X128500Y031000
X121500Y037000
X120500Y037000
X116500Y037000
X113500Y039000
X112500Y040000
X110500Y037000
X105500Y037000
X105500Y038000
X105500Y039000
X102500Y037000
X102500Y041000
X102500Y042000
X102500Y043000
X100500Y043000
X098500Y045000
X096500Y045000
X095500Y040000
X083500Y039000
X084500Y039000
X085500Y039000
X083500Y041000
X084500Y041000
X085500Y041000
X085500Y047000
X089500Y045000
X089500Y043000
X104500Y048000
X128500Y039000
X128500Y040000
X128500Y045000
X127500Y045000
X125500Y047000
X123500Y047000
X120500Y044000
X118500Y048000
X114500Y047000
X114500Y046000
X111500Y046000
X113500Y049000
X109500Y044000
X106500Y044000
X107500Y048000
X108500Y048000
X099500Y049000
X099500Y051000
X095500Y051000
X104500Y051000
X128500Y049000
X113500Y053000
X113500Y055000
X113500Y056000
X119500Y054000
X121500Y057000
X125500Y057000
X123500Y058000
X122500Y060000
X120500Y061000
X110500Y056000
X110500Y055000
X110500Y054000
X107500Y055000
X105500Y055000
X103500Y055000
X100500Y055000
X099500Y055000
X095500Y056000
X096500Y058000
X090500Y059000
X087500Y060000
X084500Y059000
X092500Y061000
X122500Y062000
X123500Y062000
X122500Y064000
X119500Y065000
X117500Y066000
X117500Y067000
X125500Y067000
X126500Y067000
X128500Y068000
X113500Y067000
X112500Y065000
X112500Y062000
X109500Y062000
X109500Y063000
X109500Y064000
X109500Y067000
X102500Y067000
X100500Y067000
X099500Y066000
X101500Y062000
X101500Y063000
X101500Y061000
X090500Y064000
X092500Y068000
X130500Y058000
X102500Y071000
X109500Y075000
X111500Y077000
X111500Y078000
X120500Y077000
X109500Y084000
X119500Y083000
X126500Y080000
X134500Y086000
X134500Y079000
X136500Y081000
X138500Y080000
X140500Y077000
X148500Y079000
X144500Y083000
X146500Y082000
X145500Y076000
X143500Y072000
X145500Y069000
X149500Y071000
X151000Y071000
X142500Y063000
X144500Y059000
X136500Y064000
X141500Y066000
X151500Y055000
X150500Y053000
X140500Y054000
X141500Y055000
X155500Y052000
X156500Y051000
X140500Y051000
X129500Y054000
X152500Y043000
X153500Y047000
X154500Y049000
X152500Y040000
X153500Y036000
X153500Y034000
X138500Y029000
X141500Y027000
X143500Y019000
X140500Y025000
X144500Y015000
X152500Y042000
X153500Y023000
X153500Y024000
X136500Y013000
X140500Y012000
X140500Y011000
X073500Y011000
X072500Y015000
X042500Y012000
X045500Y009000
X033500Y011000
X033500Y007000
X015500Y022000
X015500Y023000
X021500Y023000
X003500Y025000
X003500Y023000
X015500Y026000
X017500Y026000
X021500Y026000
X027500Y026000
X029500Y026000
X031500Y026000
X035500Y027000
X037500Y025000
X039500Y028000
X043500Y026000
X042500Y026000
X041500Y026000
X045500Y028000
X054500Y021000
X053500Y027000
X032500Y030000
X032500Y029000
X032500Y031000
X035500Y031000
X036500Y029000
X037500Y030000
X039500Y032000
X042500Y034000
X041500Y033000
X039500Y034000
X037500Y033000
X036500Y036000
X033500Y038000
X021500Y029000
X013500Y040000
X023500Y041000
X026500Y037000
X025500Y039000
X031500Y034000
X022500Y037000
X047500Y037000
X047500Y038000
X049500Y039000
X032500Y043500
X032500Y047000
X041500Y048000
X032500Y050000
X044500Y051000
X049500Y048000
X049500Y049000
X049500Y050000
X048500Y042000
X050500Y042000
X011500Y046000
X029500Y044000
X029500Y045000
X044500Y056000
X044500Y054000
X041500Y055000
X038500Y054000
X037500Y053000
X036500Y055000
X018500Y058000
X020500Y060000
X018500Y055000
X035500Y060000
X032500Y060000
X037500Y062000
X019500Y066000
X021500Y075000
X024500Y075000
X025500Y075000
X033500Y067000
X036500Y066000
X038500Y065000
X036500Y065000
X040500Y065000
X041500Y066000
X044500Y064000
X044500Y067000
X046500Y069000
X047500Y067000
X048500Y067000
X051500Y067000
X053500Y066000
X040500Y075000
X045500Y073000
X036500Y073000
X034500Y074000
X031500Y070000
X031500Y071000
X034500Y076000
X040500Y077000
X043500Y075000
X031500Y083000
X032500Y080000
X034500Y077000
X033500Y078000
X031500Y086000
X051500Y078000
X052500Y079000
X053500Y078000
X052500Y082000
X051500Y084000
X049500Y088000
X051500Y087000
X063500Y087000
X065500Y086000
X066500Y081000
X055500Y078000
X071500Y078000
X072500Y076000
X073500Y076000
X076500Y080000
X081500Y083000
X079500Y079000
X079500Y077000
X084500Y077000
X089500Y076000
X086500Y080000
X087500Y080000
X132500Y074000
X131500Y071000
X109500Y059000
X107500Y059000
X058500Y021000
X061500Y030000
X062500Y029000
X075500Y019000
X124500Y010000
X142500Y012000
X086500Y041000
X086500Y039000
X087500Y039000
X088500Y041000
X143500Y036000
X141500Y040000
X147500Y049000
X137500Y053000
X116500Y075000
X107500Y083000
X156500Y086000
X155500Y086000
X154500Y086000
X078000Y078500
X033500Y074000
X040500Y068000
X054500Y066000
X056500Y069000
X059500Y069000
X064500Y069000
X068500Y069000
X070500Y066000
X076500Y068000
X058500Y064000
X059500Y061000
X056500Y061000
X057500Y056000
X066500Y059000
X083500Y061000
X028500Y047000
X025500Y047000
X065500Y045000
X061500Y044000
X060500Y044000
X057500Y047000
X068500Y036000
X071500Y036000
X067500Y034000
X005500Y013000
X005500Y014000
X005500Y015000
X005500Y016000
X005500Y017000
X005500Y018000
X005500Y019000
X002500Y019000
X002500Y018000
X002500Y017000
X002500Y016000
X002500Y015000
X002500Y014000
X002500Y013000
X002500Y041000
X002500Y042000
X014500Y042000
X011500Y081000
X042500Y064000
X040500Y016000
X066500Y007000
X071500Y011000
X062500Y011000
X033500Y024000
X066500Y016000
X059500Y048000
X057500Y054000
X081500Y066000
X081500Y069000
X083500Y068500
X085500Y066000
X064500Y074000
X075500Y088000
X117500Y085000
X119500Y084000
X122500Y082000
X132500Y083000
X042500Y087000
X044500Y055000
X076500Y058000
X085500Y055000
X153500Y035000
X096500Y013000
X084500Y007000
X083500Y013000
X142500Y006000
X094500Y017000
X068500Y015000
X070500Y014000
X148500Y088000
X150500Y048000
X126500Y047000
X119500Y048000
X126500Y042000
X148500Y068000
X106500Y053000
X080500Y006000
X113500Y050000
X013500Y026000
X009500Y023000
X009500Y024000
X010500Y024000
X002500Y034000
X017500Y030000
X030500Y030000
X038500Y040000
X044500Y050000
X015500Y021000
X030500Y038000
X028500Y039000
X088500Y079000
X094500Y036000
X102500Y053000
X066500Y040500
X073500Y090000
X128500Y071000
X043500Y005000
X097500Y010000
X149500Y084000
X142500Y085000
X157625Y020000
X053500Y005000
T02
X019500Y049000
X009500Y049000
X083500Y037000
X080500Y037000
X021500Y047000
T03
X025500Y044000
X129500Y075000
X134500Y016000
M30
